  0
SECTION
  2
HEADER
  9
$ACADVER
  1
AC1009
  9
$INSBASE
 10
0.0
 20
0.0
 30
0.0
  9
$EXTMIN
 10
51.5062776974117682
 20
40.0252369536391228
 30
0.0
  9
$EXTMAX
 10
407.9261454795004056
 20
163.8855430436738914
 30
0.0
  9
$LIMMIN
 10
0.0
 20
0.0
  9
$LIMMAX
 10
420.0
 20
297.0
  9
$ORTHOMODE
 70
     0
  9
$REGENMODE
 70
     1
  9
$FILLMODE
 70
     1
  9
$QTEXTMODE
 70
     0
  9
$MIRRTEXT
 70
     0
  9
$DRAGMODE
 70
     2
  9
$LTSCALE
 40
0.4
  9
$OSMODE
 70
   311
  9
$ATTMODE
 70
     1
  9
$TEXTSIZE
 40
4.0
  9
$TRACEWID
 40
1.0
  9
$TEXTSTYLE
  7
ISO_PROPORTIONAL
  9
$CLAYER
  8
PAPER_OUTLINES
  9
$CELTYPE
  6
BYLAYER
  9
$CECOLOR
 62
   256
  9
$DIMSCALE
 40
1.0
  9
$DIMASZ
 40
2.5
  9
$DIMEXO
 40
2.0
  9
$DIMDLI
 40
3.75
  9
$DIMRND
 40
0.0
  9
$DIMDLE
 40
0.0
  9
$DIMEXE
 40
2.0
  9
$DIMTP
 40
0.0
  9
$DIMTM
 40
0.0
  9
$DIMTXT
 40
3.0
  9
$DIMCEN
 40
2.5
  9
$DIMTSZ
 40
0.0
  9
$DIMTOL
 70
     0
  9
$DIMLIM
 70
     0
  9
$DIMTIH
 70
     0
  9
$DIMTOH
 70
     0
  9
$DIMSE1
 70
     0
  9
$DIMSE2
 70
     0
  9
$DIMTAD
 70
     1
  9
$DIMZIN
 70
     8
  9
$DIMBLK
  1

  9
$DIMASO
 70
     1
  9
$DIMSHO
 70
     1
  9
$DIMPOST
  1

  9
$DIMAPOST
  1

  9
$DIMALT
 70
     0
  9
$DIMALTD
 70
     3
  9
$DIMALTF
 40
0.03937007874016
  9
$DIMLFAC
 40
1.0
  9
$DIMTOFL
 70
     1
  9
$DIMTVP
 40
0.0
  9
$DIMTIX
 70
     0
  9
$DIMSOXD
 70
     0
  9
$DIMSAH
 70
     0
  9
$DIMBLK1
  1

  9
$DIMBLK2
  1

  9
$DIMSTYLE
  2
BATH_ANNOTATIVE
  9
$DIMCLRD
 70
     0
  9
$DIMCLRE
 70
     0
  9
$DIMCLRT
 70
     0
  9
$DIMTFAC
 40
1.0
  9
$DIMGAP
 40
0.625
  9
$LUNITS
 70
     2
  9
$LUPREC
 70
     4
  9
$SKETCHINC
 40
1.0
  9
$FILLETRAD
 40
2.5
  9
$AUNITS
 70
     0
  9
$AUPREC
 70
     0
  9
$MENU
  1
.
  9
$ELEVATION
 40
0.0
  9
$PELEVATION
 40
0.0
  9
$THICKNESS
 40
0.0
  9
$LIMCHECK
 70
     0
  9
$BLIPMODE
 70
     0
  9
$CHAMFERA
 40
1.0
  9
$CHAMFERB
 40
1.0
  9
$SKPOLY
 70
     0
  9
$TDCREATE
 40
2459372.0186921302229166
  9
$TDUPDATE
 40
2459372.537812499795109
  9
$TDINDWG
 40
0.0819444444
  9
$TDUSRTIMER
 40
0.0819444444
  9
$USRTIMER
 70
     1
  9
$ANGBASE
 50
0.0
  9
$ANGDIR
 70
     0
  9
$PDMODE
 70
     0
  9
$PDSIZE
 40
0.0
  9
$PLINEWID
 40
0.0
  9
$COORDS
 70
     1
  9
$SPLFRAME
 70
     0
  9
$SPLINETYPE
 70
     6
  9
$SPLINESEGS
 70
 10673
  9
$ATTDIA
 70
     1
  9
$ATTREQ
 70
     1
  9
$HANDLING
 70
     1
  9
$HANDSEED
  5
4C33
  9
$SURFTAB1
 70
     6
  9
$SURFTAB2
 70
     6
  9
$SURFTYPE
 70
     6
  9
$SURFU
 70
     6
  9
$SURFV
 70
     6
  9
$UCSNAME
  2

  9
$UCSORG
 10
0.0
 20
0.0
 30
0.0
  9
$UCSXDIR
 10
1.0
 20
0.0
 30
0.0
  9
$UCSYDIR
 10
0.0
 20
1.0
 30
0.0
  9
$PUCSNAME
  2

  9
$PUCSORG
 10
0.0
 20
0.0
 30
0.0
  9
$PUCSXDIR
 10
1.0
 20
0.0
 30
0.0
  9
$PUCSYDIR
 10
0.0
 20
1.0
 30
0.0
  9
$USERI1
 70
     0
  9
$USERI2
 70
     0
  9
$USERI3
 70
     0
  9
$USERI4
 70
     0
  9
$USERI5
 70
     0
  9
$USERR1
 40
0.0
  9
$USERR2
 40
0.0
  9
$USERR3
 40
0.0
  9
$USERR4
 40
0.0
  9
$USERR5
 40
0.0
  9
$WORLDVIEW
 70
     1
  9
$SHADEDGE
 70
     3
  9
$SHADEDIF
 70
    70
  9
$TILEMODE
 70
     1
  9
$MAXACTVP
 70
    64
  9
$PLIMCHECK
 70
     0
  9
$PEXTMIN
 10
-0.8775120422290001
 20
4.4425152259916532
 30
0.0
  9
$PEXTMAX
 10
399.1224879577709999
 20
281.442515225991599
 30
0.0
  9
$PLIMMIN
 10
-10.79376220703125
 20
-5.7937498092651349
  9
$PLIMMAX
 10
409.2062377929685795
 20
291.2062501907349201
  9
$UNITMODE
 70
     0
  9
$VISRETAIN
 70
     1
  9
$PLINEGEN
 70
     0
  9
$PSLTSCALE
 70
     1
  0
ENDSEC
  0
SECTION
  2
TABLES
  0
TABLE
  2
VPORT
 70
     1
  0
VPORT
  2
*ACTIVE
 70
     0
 10
0.0
 20
0.0
 11
1.0
 21
1.0
 12
12.8157936154828995
 22
5.3591039276903976
 13
0.0
 23
0.0
 14
1.0
 24
1.0
 15
5.0
 25
5.0
 16
0.0000000000002274
 26
0.0
 36
1023.5938805633270476
 17
211.4004516601561079
 27
98.6254730224609233
 37
0.0
 40
184.9176031860201874
 41
2.2927120669056151
 42
50.0
 43
0.0
 44
0.0
 50
0.0
 51
0.0
 71
     0
 72
  1000
 73
     1
 74
     3
 75
     0
 76
     1
 77
     0
 78
     0
  0
ENDTAB
  0
TABLE
  2
LTYPE
 70
     6
  0
LTYPE
  2
CONTINUOUS
 70
     0
  3
Solid line
 72
    65
 73
     0
 40
0.0
  0
LTYPE
  2
HIDDEN
 70
     0
  3
Hidden __ __ __ __ __ __ __ __ __ __ __ __ __ _
 72
    65
 73
     2
 40
9.5249999999999968
 49
6.349999999999997
 49
-3.174999999999998
  0
LTYPE
  2
HIDDEN2
 70
     0
  3
Hidden (.5x) _ _ _ _ _ _ _ _ _ _ _ _ _ _ _ _ _
 72
    65
 73
     2
 40
4.7624999999999984
 49
3.174999999999998
 49
-1.587499999999999
  0
LTYPE
  2
CENTER2
 70
     0
  3
Center (.5x) ___ _ ___ _ ___ _ ___ _ ___ _ ___
 72
    65
 73
     4
 40
28.5749999999999993
 49
19.0500000000000007
 49
-3.174999999999998
 49
3.174999999999998
 49
-3.174999999999998
  0
LTYPE
  2
CENTER
 70
     0
  3
Center ____ _ ____ _ ____ _ ____ _ ____ _ ____
 72
    65
 73
     4
 40
50.7999999999999972
 49
31.75
 49
-6.349999999999997
 49
6.349999999999997
 49
-6.349999999999997
  0
ENDTAB
  0
TABLE
  2
LAYER
 70
    12
  0
LAYER
  2
0
 70
     0
 62
     1
  6
CONTINUOUS
  0
LAYER
  2
PAPER_OUTLINES
 70
     0
 62
     7
  6
CONTINUOUS
  0
LAYER
  2
DEFPOINTS
 70
     0
 62
     7
  6
CONTINUOUS
  0
LAYER
  2
DIMENSIONS
 70
     0
 62
     7
  6
CONTINUOUS
  0
LAYER
  2
CONSTRUCTION_LINES
 70
     0
 62
   253
  6
CONTINUOUS
  0
LAYER
  2
CENTRELINES
 70
     0
 62
     6
  6
CENTER2
  0
LAYER
  2
OUTLINES
 70
     0
 62
     1
  6
CONTINUOUS
  0
LAYER
  2
HIDDEN_DETAIL
 70
     0
 62
     2
  6
HIDDEN
  0
LAYER
  2
HATCHING
 70
     0
 62
     5
  6
CONTINUOUS
  0
LAYER
  2
FINE_LINES
 70
     0
 62
     4
  6
CONTINUOUS
  0
LAYER
  2
SECTION_LINE
 70
     0
 62
     7
  6
CENTER
  0
LAYER
  2
THICKENED_END__SECTION_LIN
 70
     0
 62
     7
  6
CONTINUOUS
  0
ENDTAB
  0
TABLE
  2
STYLE
 70
     5
  0
STYLE
  2
STANDARD
 70
     0
 40
0.0
 41
1.0
 50
0.0
 71
     0
 42
2.5
  3
simplex.shx
  4

  0
STYLE
  2
ANNOTATIVE
 70
     0
 40
0.0
 41
1.0
 50
0.0
 71
     0
 42
0.2
  3
txt
  4

  0
STYLE
  2
ISO_PROPORTIONAL
 70
     0
 40
0.0
 41
1.0
 50
0.0
 71
     0
 42
4.0
  3
isocp.shx
  4

  0
STYLE
  2
ACISOTS
 70
     0
 40
1.0
 41
1.0
 50
0.0
 71
     0
 42
2.5
  3
isocp.shx
  4

  0
STYLE
  2

 70
     1
 40
0.0
 41
1.0
 50
0.0
 71
     0
 42
2.5
  3
ltypeshp.shx
  4

  0
ENDTAB
  0
TABLE
  2
VIEW
 70
     0
  0
ENDTAB
  0
TABLE
  2
UCS
 70
     0
  0
ENDTAB
  0
TABLE
  2
APPID
 70
    27
  0
APPID
  2
ACAD
 70
     0
  0
APPID
  2
ACADANNOTATIVE
 70
     0
  0
APPID
  2
GENIUS_GENOBJ-N-ZOO_13
 70
     0
  0
APPID
  2
GENIUS_GENODEF_13
 70
     0
  0
APPID
  2
GENIUS_GENZOO_17
 70
     0
  0
APPID
  2
ACAD_PSEXT
 70
     0
  0
APPID
  2
GENIUS_GENTRA_14
 70
     0
  0
APPID
  2
PE_URL
 70
     0
  0
APPID
  2
ACDBATTR
 70
     0
  0
APPID
  2
DCO15
 70
     0
  0
APPID
  2
ACAD_EXEMPT_FROM_CAD_STANDARDS
 70
     0
  0
APPID
  2
ACAD_NAV_VCDISPLAY
 70
     0
  0
APPID
  2
ACAD_DSTYLE_DIMJAG
 70
     0
  0
APPID
  2
ACAD_DSTYLE_DIMBREAK
 70
     0
  0
APPID
  2
ACAD_DSTYLE_DIMTALN
 70
     0
  0
APPID
  2
ACAD_DIMASSOC_CALC_DIMLFAC
 70
     0
  0
APPID
  2
ACAD_DIMASSOC_DIMLFAC
 70
     0
  0
APPID
  2
ACAD_DIMASSOC_OVERRIDDEN_D
 70
     0
  0
APPID
  2
ACAECLAYERSTANDARD
 70
     0
  0
APPID
  2
ACCMTRANSPARENCY
 70
     0
  0
APPID
  2
ACAD_DSTYLE_DIMRADIAL_EXTENSION
 70
     0
  0
APPID
  2
GRADIENTCOLOR1ACI
 70
     0
  0
APPID
  2
GRADIENTCOLOR2ACI
 70
     0
  0
APPID
  2
ACADANNOMONITORALERTICONDI
 70
     0
  0
APPID
  2
CONTENTBLOCKDESCRIPTION
 70
     0
  0
APPID
  2
CONTENTBLOCKICON
 70
     0
  0
APPID
  2
ACAD_MLEADERVER
 70
     0
  0
ENDTAB
  0
TABLE
  2
DIMSTYLE
 70
     5
  0
DIMSTYLE
  2
STANDARD
 70
     0
  3

  4

  5

  6

  7

 40
1.0
 41
0.18
 42
0.0625
 43
0.38
 44
0.18
 45
0.0
 46
0.0
 47
0.0
 48
0.0
140
0.18
141
0.09
142
0.0
143
25.3999999999999986
144
1.0
145
0.0
146
1.0
147
0.09
 71
     0
 72
     0
 73
     1
 74
     1
 75
     0
 76
     0
 77
     0
 78
     0
170
     0
171
     2
172
     0
173
     0
174
     0
175
     0
176
     0
177
     0
178
     0
  0
DIMSTYLE
  2
ANNOTATIVE
 70
     0
  3

  4

  5

  6

  7

 40
1.0
 41
0.18
 42
0.0625
 43
0.38
 44
0.18
 45
0.0
 46
0.0
 47
0.0
 48
0.0
140
0.18
141
0.09
142
0.0
143
25.3999999999999986
144
1.0
145
0.0
146
1.0
147
0.09
 71
     0
 72
     0
 73
     1
 74
     1
 75
     0
 76
     0
 77
     0
 78
     0
170
     0
171
     2
172
     0
173
     0
174
     0
175
     0
176
     0
177
     0
178
     0
  0
DIMSTYLE
  2
ISO-25
 70
     0
  3

  4

  5

  6

  7

 40
1.0
 41
2.5
 42
0.625
 43
3.75
 44
1.25
 45
0.0
 46
0.0
 47
0.0
 48
0.0
140
2.5
141
2.5
142
0.0
143
0.03937007874016
144
1.0
145
0.0
146
1.0
147
0.625
 71
     0
 72
     0
 73
     0
 74
     0
 75
     0
 76
     0
 77
     1
 78
     8
170
     0
171
     3
172
     1
173
     0
174
     0
175
     0
176
     0
177
     0
178
     0
  0
DIMSTYLE
  2
BATH_ANNOTATIVE
 70
     0
  3

  4

  5

  6

  7

 40
1.0
 41
2.5
 42
2.0
 43
3.75
 44
2.0
 45
0.0
 46
0.0
 47
0.0
 48
0.0
140
3.0
141
2.5
142
0.0
143
0.03937007874016
144
1.0
145
0.0
146
1.0
147
0.625
 71
     0
 72
     0
 73
     0
 74
     0
 75
     0
 76
     0
 77
     1
 78
     8
170
     0
171
     3
172
     1
173
     0
174
     0
175
     0
176
     0
177
     0
178
     0
  0
ENDTAB
  0
ENDSEC
  0
SECTION
  2
BLOCKS
  0
BLOCK
  8
0
  2
$MODEL_SPACE
 70
     0
 10
0.0
 20
0.0
 30
0.0
  3
$MODEL_SPACE
  1

  0
ENDBLK
  5
4AF3
  8
0
  0
BLOCK
 67
     1
  8
0
  2
$PAPER_SPACE
 70
     0
 10
0.0
 20
0.0
 30
0.0
  3
$PAPER_SPACE
  1

  0
ENDBLK
  5
4AEF
 67
     1
  8
0
  0
BLOCK
  8
0
  2
TITLE_BLOCK
 70
     2
 10
0.0
 20
0.0
 30
0.0
  3
TITLE_BLOCK
  1

  0
LINE
  5
2938
  8
PAPER_OUTLINES
 10
11.0
 20
10.0
 30
0.0
 11
407.0
 21
10.0
 31
0.0
  0
LINE
  5
2939
  8
PAPER_OUTLINES
 10
407.0
 20
284.2300000000000182
 30
0.0
 11
11.0
 21
284.2300000000000182
 31
0.0
  0
LINE
  5
293A
  8
PAPER_OUTLINES
 10
159.5
 20
5.049999999999998
 30
0.0
 11
258.5
 21
5.049999999999998
 31
0.0
  0
LINE
  5
293B
  8
PAPER_OUTLINES
 10
206.5250000000000057
 20
12.4749999999999996
 30
0.0
 11
211.4749999999999943
 21
12.4749999999999996
 31
0.0
  0
LINE
  5
293C
  8
PAPER_OUTLINES
 10
211.4749999999999943
 20
12.4749999999999996
 30
0.0
 11
209.0
 21
7.5249999999999959
 31
0.0
  0
LINE
  5
293D
  8
PAPER_OUTLINES
 10
11.0
 20
284.2300000000000182
 30
0.0
 11
11.0
 21
10.0
 31
0.0
  0
LINE
  5
293E
  8
PAPER_OUTLINES
 10
13.4749999999999996
 20
149.5900000000000034
 30
0.0
 11
13.4749999999999996
 21
144.6399999999999864
 31
0.0
  0
LINE
  5
293F
  8
PAPER_OUTLINES
 10
8.5249999999999968
 20
147.1150000000000091
 30
0.0
 11
13.4749999999999996
 21
149.5900000000000034
 31
0.0
  0
LINE
  5
2940
  8
PAPER_OUTLINES
 10
0.0
 20
0.0
 30
0.0
 11
0.0
 21
10.0
 31
0.0
  0
LINE
  5
2941
  8
PAPER_OUTLINES
 10
0.0
 20
0.0
 30
0.0
 11
10.0
 21
0.0
 31
0.0
  0
TEXT
  5
2942
  8
PAPER_OUTLINES
 10
7.1389999999999967
 20
31.2850000000000001
 30
0.0
 40
3.9599999999999982
  1
F
  7
ISO_PROPORTIONAL
 72
     4
 11
8.5249999999999968
 21
33.2650000000000006
 31
0.0
  0
TEXT
  5
2943
  8
PAPER_OUTLINES
 10
34.759999999999998
 20
5.5449999999999982
 30
0.0
 40
3.9599999999999982
  1
1
  7
ISO_PROPORTIONAL
 72
     4
 11
35.75
 21
7.5249999999999959
 31
0.0
  0
LINE
  5
2944
  8
PAPER_OUTLINES
 10
60.5
 20
5.049999999999998
 30
0.0
 11
60.5
 21
10.0
 31
0.0
  0
LINE
  5
2945
  8
PAPER_OUTLINES
 10
6.049999999999998
 20
147.1150000000000091
 30
0.0
 11
15.9499999999999993
 21
147.1150000000000091
 31
0.0
  0
TEXT
  5
2946
  8
PAPER_OUTLINES
 10
7.1389999999999967
 20
76.8249999999999744
 30
0.0
 40
3.9599999999999982
  1
E
  7
ISO_PROPORTIONAL
 72
     4
 11
8.5249999999999968
 21
78.8049999999999642
 31
0.0
  0
LINE
  5
2947
  8
PAPER_OUTLINES
 10
11.0
 20
56.0349999999999966
 30
0.0
 11
6.049999999999998
 21
56.0349999999999966
 31
0.0
  0
TEXT
  5
2948
  8
PAPER_OUTLINES
 10
6.8282303576439221
 20
122.3649999999999949
 30
0.0
 40
3.9599999999999982
  1
D
  7
ISO_PROPORTIONAL
 72
     4
 11
8.5249999999999968
 21
124.3449999999999989
 31
0.0
  0
LINE
  5
2949
  8
PAPER_OUTLINES
 10
11.0
 20
101.5750000000000028
 30
0.0
 11
6.049999999999998
 21
101.5750000000000028
 31
0.0
  0
LINE
  5
294A
  8
PAPER_OUTLINES
 10
13.4749999999999996
 20
144.6399999999999864
 30
0.0
 11
8.5249999999999968
 21
147.1150000000000091
 31
0.0
  0
TEXT
  5
294B
  8
PAPER_OUTLINES
 10
133.2819857146500908
 20
5.6270142853498646
 30
0.0
 40
3.9599999999999982
  1
3
  7
ISO_PROPORTIONAL
 72
     4
 11
134.75
 21
7.5249999999999959
 31
0.0
  0
TEXT
  5
294C
  8
PAPER_OUTLINES
 10
83.7953625984252
 20
5.4456102362204692
 30
0.0
 40
3.9599999999999982
  1
2
  7
ISO_PROPORTIONAL
 72
     4
 11
85.25
 21
7.5249999999999959
 31
0.0
  0
LINE
  5
294D
  8
PAPER_OUTLINES
 10
110.0
 20
5.049999999999998
 30
0.0
 11
110.0
 21
10.0
 31
0.0
  0
LINE
  5
294E
  8
PAPER_OUTLINES
 10
209.0
 20
10.0
 30
0.0
 11
209.0
 21
5.049999999999998
 31
0.0
  0
LINE
  5
294F
  8
PAPER_OUTLINES
 10
159.5
 20
5.049999999999998
 30
0.0
 11
159.5
 21
10.0
 31
0.0
  0
LINE
  5
2950
  8
PAPER_OUTLINES
 10
169.4000000000000057
 20
5.049999999999998
 30
0.0
 11
169.4000000000000057
 21
10.0
 31
0.0
  0
LINE
  5
2951
  8
PAPER_OUTLINES
 10
179.3000000000000114
 20
5.049999999999998
 30
0.0
 11
179.3000000000000114
 21
10.0
 31
0.0
  0
LINE
  5
2952
  8
PAPER_OUTLINES
 10
189.1999999999999886
 20
5.049999999999998
 30
0.0
 11
189.1999999999999886
 21
10.0
 31
0.0
  0
LINE
  5
2953
  8
PAPER_OUTLINES
 10
199.0999999999999943
 20
5.049999999999998
 30
0.0
 11
199.0999999999999943
 21
10.0
 31
0.0
  0
LINE
  5
2954
  8
PAPER_OUTLINES
 10
209.0
 20
7.5249999999999959
 30
0.0
 11
206.5250000000000057
 21
12.4749999999999996
 31
0.0
  0
LINE
  5
2955
  8
PAPER_OUTLINES
 10
209.0
 20
10.0
 30
0.0
 11
209.0
 21
14.9499999999999993
 31
0.0
  0
TEXT
  5
2956
  8
PAPER_OUTLINES
 10
7.2312660710186041
 20
167.9050000000000011
 30
0.0
 40
3.9599999999999982
  1
C
  7
ISO_PROPORTIONAL
 72
     4
 11
8.5249999999999968
 21
169.8849999999999909
 31
0.0
  0
LINE
  5
2957
  8
PAPER_OUTLINES
 10
11.0
 20
192.6550000000000011
 30
0.0
 11
6.049999999999998
 21
192.6550000000000011
 31
0.0
  0
TEXT
  5
2958
  8
PAPER_OUTLINES
 10
6.9409999999999927
 20
213.4449999999999932
 30
0.0
 40
3.9599999999999982
  1
B
  7
ISO_PROPORTIONAL
 72
     4
 11
8.5249999999999968
 21
215.4250000000000114
 31
0.0
  0
LINE
  5
2959
  8
PAPER_OUTLINES
 10
11.0
 20
238.1949999999999932
 30
0.0
 11
6.049999999999998
 21
238.1949999999999932
 31
0.0
  0
LINE
  5
295A
  8
PAPER_OUTLINES
 10
0.0
 20
297.0
 30
0.0
 11
0.0
 21
287.0
 31
0.0
  0
TEXT
  5
295B
  8
PAPER_OUTLINES
 10
6.7429999999999959
 20
258.9850000000000136
 30
0.0
 40
3.9599999999999982
  1
A
  7
ISO_PROPORTIONAL
 72
     4
 11
8.5249999999999968
 21
260.964999999999975
 31
0.0
  0
LINE
  5
295C
  8
PAPER_OUTLINES
 10
10.0
 20
297.0
 30
0.0
 11
0.0
 21
297.0
 31
0.0
  0
LINE
  5
295D
  8
PAPER_OUTLINES
 10
60.5
 20
284.2300000000000182
 30
0.0
 11
60.5
 21
289.1800000000000068
 31
0.0
  0
TEXT
  5
295E
  8
PAPER_OUTLINES
 10
34.759999999999998
 20
284.7250000000000227
 30
0.0
 40
3.9599999999999982
  1
1
  7
ISO_PROPORTIONAL
 72
     4
 11
35.75
 21
286.7049999999999841
 31
0.0
  0
LINE
  5
295F
  8
PAPER_OUTLINES
 10
110.0
 20
284.2300000000000182
 30
0.0
 11
110.0
 21
289.1800000000000068
 31
0.0
  0
TEXT
  5
2960
  8
PAPER_OUTLINES
 10
83.7953625984252
 20
284.6256102362203819
 30
0.0
 40
3.9599999999999982
  1
2
  7
ISO_PROPORTIONAL
 72
     4
 11
85.25
 21
286.7049999999999841
 31
0.0
  0
TEXT
  5
2961
  8
PAPER_OUTLINES
 10
133.2819857146500908
 20
284.8070142853499078
 30
0.0
 40
3.9599999999999982
  1
3
  7
ISO_PROPORTIONAL
 72
     4
 11
134.75
 21
286.7049999999999841
 31
0.0
  0
LINE
  5
2962
  8
PAPER_OUTLINES
 10
209.0
 20
279.2799999999999727
 30
0.0
 11
209.0
 21
289.1800000000000068
 31
0.0
  0
LINE
  5
2963
  8
PAPER_OUTLINES
 10
159.5
 20
284.2300000000000182
 30
0.0
 11
159.5
 21
289.1800000000000068
 31
0.0
  0
TEXT
  5
2964
  8
PAPER_OUTLINES
 10
182.6659999999999968
 20
284.7250000000000227
 30
0.0
 40
3.9599999999999982
  1
4
  7
ISO_PROPORTIONAL
 72
     4
 11
184.25
 21
286.7049999999999841
 31
0.0
  0
LINE
  5
2965
  8
PAPER_OUTLINES
 10
407.0
 20
10.0
 30
0.0
 11
407.0
 21
284.2300000000000182
 31
0.0
  0
LINE
  5
2966
  8
PAPER_OUTLINES
 10
258.5
 20
5.049999999999998
 30
0.0
 11
258.5
 21
10.0
 31
0.0
  0
LINE
  5
2967
  8
PAPER_OUTLINES
 10
218.9000000000000057
 20
5.049999999999998
 30
0.0
 11
218.9000000000000057
 21
10.0
 31
0.0
  0
LINE
  5
2968
  8
PAPER_OUTLINES
 10
228.8000000000000114
 20
5.049999999999998
 30
0.0
 11
228.8000000000000114
 21
10.0
 31
0.0
  0
LINE
  5
2969
  8
PAPER_OUTLINES
 10
238.6999999999999886
 20
5.049999999999998
 30
0.0
 11
238.6999999999999886
 21
10.0
 31
0.0
  0
LINE
  5
296A
  8
PAPER_OUTLINES
 10
248.5999999999999943
 20
5.049999999999998
 30
0.0
 11
248.5999999999999943
 21
10.0
 31
0.0
  0
TEXT
  5
296B
  8
PAPER_OUTLINES
 10
331.3639999999999759
 20
5.5449999999999982
 30
0.0
 40
3.9599999999999982
  1
7
  7
ISO_PROPORTIONAL
 72
     4
 11
332.75
 21
7.5249999999999959
 31
0.0
  0
TEXT
  5
296C
  8
PAPER_OUTLINES
 10
281.8842677165354189
 20
5.4561338582677141
 30
0.0
 40
3.9599999999999982
  1
6
  7
ISO_PROPORTIONAL
 72
     4
 11
283.25
 21
7.5249999999999959
 31
0.0
  0
LINE
  5
296D
  8
PAPER_OUTLINES
 10
308.0
 20
5.049999999999998
 30
0.0
 11
308.0
 21
10.0
 31
0.0
  0
TEXT
  5
296E
  8
PAPER_OUTLINES
 10
380.8639999999999759
 20
5.5449999999999982
 30
0.0
 40
3.9599999999999982
  1
8
  7
ISO_PROPORTIONAL
 72
     4
 11
382.25
 21
7.5249999999999959
 31
0.0
  0
LINE
  5
296F
  8
PAPER_OUTLINES
 10
357.5
 20
5.049999999999998
 30
0.0
 11
357.5
 21
10.0
 31
0.0
  0
LINE
  5
2970
  8
PAPER_OUTLINES
 10
420.0
 20
0.0
 30
0.0
 11
420.0
 21
10.0
 31
0.0
  0
LINE
  5
2971
  8
PAPER_OUTLINES
 10
420.0
 20
0.0
 30
0.0
 11
410.0
 21
0.0
 31
0.0
  0
TEXT
  5
2972
  8
PAPER_OUTLINES
 10
408.0889999999999986
 20
31.2850000000000001
 30
0.0
 40
3.9599999999999982
  1
F
  7
ISO_PROPORTIONAL
 72
     4
 11
409.4750000000000227
 21
33.2650000000000006
 31
0.0
  0
LINE
  5
2973
  8
PAPER_OUTLINES
 10
402.0500000000000114
 20
147.1150000000000091
 30
0.0
 11
411.9499999999999886
 21
147.1150000000000091
 31
0.0
  0
TEXT
  5
2974
  8
PAPER_OUTLINES
 10
408.0889999999999986
 20
76.8249999999999744
 30
0.0
 40
3.9599999999999982
  1
E
  7
ISO_PROPORTIONAL
 72
     4
 11
409.4750000000000227
 21
78.8049999999999642
 31
0.0
  0
LINE
  5
2975
  8
PAPER_OUTLINES
 10
411.9499999999999886
 20
56.0349999999999966
 30
0.0
 11
407.0
 21
56.0349999999999966
 31
0.0
  0
TEXT
  5
2976
  8
PAPER_OUTLINES
 10
407.7782303576439062
 20
122.3649999999999949
 30
0.0
 40
3.9599999999999982
  1
D
  7
ISO_PROPORTIONAL
 72
     4
 11
409.4750000000000227
 21
124.3449999999999989
 31
0.0
  0
LINE
  5
2977
  8
PAPER_OUTLINES
 10
411.9499999999999886
 20
101.5750000000000028
 30
0.0
 11
407.0
 21
101.5750000000000028
 31
0.0
  0
LINE
  5
2978
  8
PAPER_OUTLINES
 10
258.5
 20
284.2300000000000182
 30
0.0
 11
258.5
 21
289.1800000000000068
 31
0.0
  0
TEXT
  5
2979
  8
PAPER_OUTLINES
 10
232.2819857146500908
 20
284.8070142853499078
 30
0.0
 40
3.9599999999999982
  1
5
  7
ISO_PROPORTIONAL
 72
     4
 11
233.75
 21
286.7049999999999841
 31
0.0
  0
LINE
  5
297A
  8
PAPER_OUTLINES
 10
308.0
 20
284.2300000000000182
 30
0.0
 11
308.0
 21
289.1800000000000068
 31
0.0
  0
TEXT
  5
297B
  8
PAPER_OUTLINES
 10
281.8842677165354189
 20
284.6361338582677263
 30
0.0
 40
3.9599999999999982
  1
6
  7
ISO_PROPORTIONAL
 72
     4
 11
283.25
 21
286.7049999999999841
 31
0.0
  0
TEXT
  5
297C
  8
PAPER_OUTLINES
 10
331.3639999999999759
 20
284.7250000000000227
 30
0.0
 40
3.9599999999999982
  1
7
  7
ISO_PROPORTIONAL
 72
     4
 11
332.75
 21
286.7049999999999841
 31
0.0
  0
TEXT
  5
297D
  8
PAPER_OUTLINES
 10
408.1812660710186265
 20
167.9050000000000011
 30
0.0
 40
3.9599999999999982
  1
C
  7
ISO_PROPORTIONAL
 72
     4
 11
409.4750000000000227
 21
169.8849999999999909
 31
0.0
  0
LINE
  5
297E
  8
PAPER_OUTLINES
 10
411.9499999999999886
 20
192.6550000000000011
 30
0.0
 11
407.0
 21
192.6550000000000011
 31
0.0
  0
TEXT
  5
297F
  8
PAPER_OUTLINES
 10
407.8910000000000196
 20
213.4449999999999932
 30
0.0
 40
3.9599999999999982
  1
B
  7
ISO_PROPORTIONAL
 72
     4
 11
409.4750000000000227
 21
215.4250000000000114
 31
0.0
  0
LINE
  5
2980
  8
PAPER_OUTLINES
 10
411.9499999999999886
 20
238.1949999999999932
 30
0.0
 11
407.0
 21
238.1949999999999932
 31
0.0
  0
LINE
  5
2981
  8
PAPER_OUTLINES
 10
357.5
 20
284.2300000000000182
 30
0.0
 11
357.5
 21
289.1800000000000068
 31
0.0
  0
TEXT
  5
2982
  8
PAPER_OUTLINES
 10
380.8639999999999759
 20
284.7250000000000227
 30
0.0
 40
3.9599999999999982
  1
8
  7
ISO_PROPORTIONAL
 72
     4
 11
382.25
 21
286.7049999999999841
 31
0.0
  0
LINE
  5
2983
  8
PAPER_OUTLINES
 10
420.0
 20
287.0
 30
0.0
 11
420.0
 21
297.0
 31
0.0
  0
TEXT
  5
2984
  8
PAPER_OUTLINES
 10
407.6929999999999836
 20
258.9850000000000136
 30
0.0
 40
3.9599999999999982
  1
A
  7
ISO_PROPORTIONAL
 72
     4
 11
409.4750000000000227
 21
260.964999999999975
 31
0.0
  0
LINE
  5
2985
  8
PAPER_OUTLINES
 10
420.0
 20
297.0
 30
0.0
 11
410.0
 21
297.0
 31
0.0
  0
INSERT
  5
2986
  8
PAPER_OUTLINES
  2
*U3
 10
0.0
 20
0.0
 30
0.0
  0
LINE
  5
2987
  8
PAPER_OUTLINES
 10
407.0
 20
10.0
 30
0.0
 11
242.0
 21
10.0
 31
0.0
  0
LINE
  5
2988
  8
PAPER_OUTLINES
 10
407.0
 20
60.0
 30
0.0
 11
242.0
 21
60.0
 31
0.0
  0
LINE
  5
2989
  8
PAPER_OUTLINES
 10
242.0000000000001137
 20
16.3818088114782086
 30
0.0
 11
324.5
 21
16.3818088114782086
 31
0.0
  0
LINE
  5
298A
  8
PAPER_OUTLINES
 10
242.0000000000001137
 20
22.3818088114782086
 30
0.0
 11
324.5
 21
22.3818088114782086
 31
0.0
  0
LINE
  5
298B
  8
PAPER_OUTLINES
 10
242.0000000000001137
 20
28.3818088114782086
 30
0.0
 11
324.5
 21
28.3818088114782086
 31
0.0
  0
LINE
  5
298C
  8
PAPER_OUTLINES
 10
242.0000000000001137
 20
34.3818088114782086
 30
0.0
 11
324.5
 21
34.3818088114782086
 31
0.0
  0
LINE
  5
298D
  8
PAPER_OUTLINES
 10
242.0000000000001137
 20
40.3818088114782086
 30
0.0
 11
324.5
 21
40.3818088114782086
 31
0.0
  0
LINE
  5
298E
  8
PAPER_OUTLINES
 10
242.0000000000001137
 20
46.3818088114782014
 30
0.0
 11
324.5
 21
46.3818088114782014
 31
0.0
  0
LINE
  5
298F
  8
PAPER_OUTLINES
 10
242.0000000000001137
 20
52.3818088114782228
 30
0.0
 11
324.5
 21
52.3818088114782228
 31
0.0
  0
TEXT
  5
2990
  8
PAPER_OUTLINES
 10
291.2994066234929846
 20
57.0432531104390819
 30
0.0
 40
2.0
  1
FSCM NO
  7
ACISOTS
1001
GENIUS_GENTRA_14
1002
{
1070
     1
1000
GENTRATX{15.7},%s,(GENMSG gentitis 68)
1000
FSCM NO
1000
ENU
1070
     0
1040
1.0
1070
     0
1002
}
  0
TEXT
  5
2991
  8
PAPER_OUTLINES
 10
243.0279610407247901
 20
48.1387472068884108
 30
0.0
 40
2.0
  1
SIZE
  7
ACISOTS
1001
GENIUS_GENTRA_14
1002
{
1070
     1
1000
GENTRATX{5.5},%s,(GENMSG gentitis 93)
1000
SIZE
1000
ENU
1070
     0
1040
1.0
1070
     0
1002
}
  0
TEXT
  5
2992
  8
PAPER_OUTLINES
 10
243.0279610407247048
 20
17.992707767617599
 30
0.0
 40
2.0
  1
REV
  7
ACISOTS
1001
GENIUS_GENTRA_14
1002
{
1070
     1
1000
GENTRATX{5.5},%s,(GENMSG gentitis 90)
1000
REV
1000
ENU
1070
     0
1040
1.0
1070
     0
1002
}
  0
TEXT
  5
2993
  8
PAPER_OUTLINES
 10
243.0279610407247048
 20
11.9927077676176008
 30
0.0
 40
2.0
  1
CONTRACT NO
 41
0.6835185874663064
  7
ACISOTS
1001
GENIUS_GENTRA_14
1002
{
1070
     1
1000
GENTRATX{5.5},%s,(GENMSG gentitis 69)
1000
CONTRACT NO
1000
ENU
1070
     0
1040
1.0
1070
     0
1002
}
  0
TEXT
  5
2994
  8
PAPER_OUTLINES
 10
243.0279610407247048
 20
30.0794328252289915
 30
0.0
 40
2.0
  1
APPR.
  7
ACISOTS
1001
GENIUS_GENTRA_14
1002
{
1070
     1
1000
GENTRATX{5.5},%s,(GENMSG gentitis 66)
1000
APPR.
1000
ENU
1070
     0
1040
1.0
1070
     0
1002
}
  0
TEXT
  5
2995
  8
PAPER_OUTLINES
 10
243.0279610407247048
 20
23.9927077676176204
 30
0.0
 40
2.0
  1
ISSUED
  7
ACISOTS
1001
GENIUS_GENTRA_14
1002
{
1070
     1
1000
GENTRATX{5.5},%s,(GENMSG gentitis 67)
1000
ISSUED
1000
ENU
1070
     0
1040
1.0
1070
     0
1002
}
  0
TEXT
  5
2996
  8
PAPER_OUTLINES
 10
243.0279610407247048
 20
36.0520221492770432
 30
0.0
 40
2.0
  1
CHECK
  7
ACISOTS
1001
GENIUS_GENTRA_14
1002
{
1070
     1
1000
GENTRATX{5.5},%s,(GENMSG gentitis 65)
1000
CHECK
1000
ENU
1070
     0
1040
1.0
1070
     0
1002
}
  0
TEXT
  5
2997
  8
PAPER_OUTLINES
 10
243.0279610407247048
 20
42.1387472068883895
 30
0.0
 40
2.0
  1
DRAWN
  7
ACISOTS
1001
GENIUS_GENTRA_14
1002
{
1070
     1
1000
GENTRATX{5.5},%s,(GENMSG gentitis 63)
1000
DRAWN
1000
ENU
1070
     0
1040
1.0
1070
     0
1002
}
  0
TEXT
  5
2998
  8
PAPER_OUTLINES
 10
243.0279610407247048
 20
57.0432531104390819
 30
0.0
 40
2.0
  1
FILE NAME
  7
ACISOTS
1001
GENIUS_GENTRA_14
1002
{
1070
     1
1000
GENTRATX{22.7},%s,(GENMSG gentitis 60)
1000
FILE NAME
1000
ENU
1070
     0
1040
1.0
1070
     0
1002
}
  0
LINE
  5
2999
  8
PAPER_OUTLINES
 10
242.0
 20
10.0
 30
0.0
 11
242.0000000000001137
 21
60.0
 31
0.0
  0
LINE
  5
299A
  8
PAPER_OUTLINES
 10
290.1423062169807281
 20
60.0
 30
0.0
 11
290.1423062169807281
 21
52.3818088114782228
 31
0.0
  0
LINE
  5
299B
  8
PAPER_OUTLINES
 10
324.5
 20
39.0130346188704635
 30
0.0
 11
407.0
 21
39.0130346188704635
 31
0.0
  0
LINE
  5
299C
  8
PAPER_OUTLINES
 10
324.5
 20
23.29272283977906
 30
0.0
 11
407.0
 21
23.29272283977906
 31
0.0
  0
TEXT
  5
299D
  8
PAPER_OUTLINES
 10
367.0326375998020012
 20
57.1120139097793711
 30
0.0
 40
2.0
  1
SCALE
  7
ACISOTS
1001
GENIUS_GENTRA_14
1002
{
1070
     1
1000
GENTRATX{18.9},%s,(GENMSG gentitis 62)
1000
SCALE
1000
ENU
1070
     0
1040
1.0
1070
     0
1002
}
  0
LINE
  5
299E
  8
PAPER_OUTLINES
 10
407.0
 20
50.3481025273626912
 30
0.0
 11
324.5
 21
50.3481025273626912
 31
0.0
  0
TEXT
  5
299F
  8
PAPER_OUTLINES
 10
325.4527401539011748
 20
57.1120139097793711
 30
0.0
 40
2.0
  1
SHEET
  7
ACISOTS
1001
GENIUS_GENTRA_14
1002
{
1070
     1
1000
GENTRATX{19.2},%s,(GENMSG gentitis 64)
1000
SHEET
1000
ENU
1070
     0
1040
1.0
1070
     0
1002
}
  0
LINE
  5
29A0
  8
PAPER_OUTLINES
 10
324.5
 20
10.0
 30
0.0
 11
324.5
 21
60.0
 31
0.0
  0
LINE
  5
29A1
  8
PAPER_OUTLINES
 10
365.75
 20
50.3481025273626912
 30
0.0
 11
365.75
 21
60.0
 31
0.0
  0
LINE
  5
29A2
  8
PAPER_OUTLINES
 10
407.0
 20
9.9999999999997726
 30
0.0
 11
407.0000000000001137
 21
60.0
 31
0.0
  0
INSERT
  5
29A3
  8
PAPER_OUTLINES
  2
*U4
 10
0.0
 20
0.0
 30
0.0
  0
ATTDEF
  5
29A4
  8
PAPER_OUTLINES
 10
326.7745050372071773
 20
30.4752986772033694
 30
0.0
 40
6.0
  1
####
  7
ACISOTS
  3
Sheet name
  2
SHEETNAME
 70
     0
1001
GENIUS_GENTRA_14
1002
{
1070
     3
1000
GENTRAPR,%s,(GENMSG gentitus 80)
1000
Check Date
1000
ENU
1070
     0
1070
     0
1002
}
  0
ATTDEF
  5
29A9
  8
PAPER_OUTLINES
 10
326.7745050372071773
 20
11.7645116314846092
 30
0.0
 40
6.0
  1
#### - ####
  7
ACISOTS
  3
Sheet number and name
  2
SHEETNUMBER-NAME
 70
     0
1001
GENIUS_GENTRA_14
1002
{
1070
     3
1000
GENTRAPR,%s,(GENMSG gentitus 80)
1000
Check Date
1000
ENU
1070
     0
1070
     0
1002
}
  0
ATTDEF
  5
29AF
  8
PAPER_OUTLINES
 10
368.0245050372071773
 20
52.1126141588473217
 30
0.0
 40
3.0
  1
1:1
  7
ACISOTS
  3
Scale
  2
SCALE
 70
     0
1001
GENIUS_GENTRA_14
1002
{
1070
     3
1000
GENTRAPR,%s,(GENMSG gentitus 80)
1000
Check Date
1000
ENU
1070
     0
1070
     0
1002
}
  0
ATTDEF
  5
29B4
  8
PAPER_OUTLINES
 10
326.7745050372071773
 20
52.1126141588473217
 30
0.0
 40
3.0
  1
####
  7
ACISOTS
  3
Sheet
  2
SHEET
 70
     0
1001
GENIUS_GENTRA_14
1002
{
1070
     3
1000
GENTRAPR,%s,(GENMSG gentitus 80)
1000
Check Date
1000
ENU
1070
     0
1070
     0
1002
}
  0
ATTDEF
  5
29B9
  8
PAPER_OUTLINES
 10
254.4119275547868142
 20
53.8950950204260621
 30
0.0
 40
3.0
  1
closed.dxf
  7
ACISOTS
  3
File Name
  2
FILE_NAME
 70
     0
1001
GENIUS_GENTRA_14
1002
{
1070
     3
1000
GENTRAPR,%s,(GENMSG gentitus 80)
1000
Check Date
1000
ENU
1070
     0
1070
     0
1002
}
  0
ATTDEF
  5
29BE
  8
PAPER_OUTLINES
 10
254.4119275547868142
 20
41.8950950204260408
 30
0.0
 40
3.0
  1
6/6/2021
  7
ACISOTS
  3
Check Date
  2
CHECK_DATE
 70
     0
1001
GENIUS_GENTRA_14
1002
{
1070
     3
1000
GENTRAPR,%s,(GENMSG gentitus 80)
1000
Check Date
1000
ENU
1070
     0
1070
     0
1002
}
  0
ATTDEF
  5
29C3
  8
PAPER_OUTLINES
 10
254.7030753764308031
 20
18.0838926461437914
 30
0.0
 40
3.0
  1

  7
ACISOTS
  3
Revision
  2
REVISION
 70
     0
1001
GENIUS_GENTRA_14
1002
{
1070
     3
1000
GENTRAPR,%s,(GENMSG gentitis 87)
1000
Revision
1000
ENU
1070
     0
1070
     0
1002
}
  0
ATTDEF
  5
29C4
  8
PAPER_OUTLINES
 10
254.7030753764308031
 20
36.1432070278032214
 30
0.0
 40
3.0
  1

  7
ACISOTS
  3
Check Date
  2
CHECK_DATE
 70
     0
1001
GENIUS_GENTRA_14
1002
{
1070
     3
1000
GENTRAPR,%s,(GENMSG gentitis 78)
1000
Check Date
1000
ENU
1070
     0
1070
     0
1002
}
  0
ATTDEF
  5
29C5
  8
PAPER_OUTLINES
 10
254.7030753764306894
 20
12.0838926461437897
 30
0.0
 40
3.5
  1

  7
ACISOTS
  3
Contract Number
  2
CONTRACT_NO
 70
     0
1001
GENIUS_GENTRA_14
1002
{
1070
     3
1000
GENTRAPR,%s,(GENMSG gentitis 85)
1000
Contract Number
1000
ENU
1070
     0
1070
     0
1002
}
  0
ATTDEF
  5
29C6
  8
PAPER_OUTLINES
 10
277.9557841116940722
 20
36.1432070278032214
 30
0.0
 40
3.0
  1

  7
ACISOTS
  3
Checked by
  2
CHECKED_BY
 70
     0
1001
GENIUS_GENTRA_14
1002
{
1070
     3
1000
GENTRAPR,%s,(GENMSG gentitis 79)
1000
Checked by
1000
ENU
1070
     0
1070
     0
1002
}
  0
ATTDEF
  5
29C7
  8
PAPER_OUTLINES
 10
254.7030753764308031
 20
48.2299333687393528
 30
0.0
 40
3.0
  1

  7
ACISOTS
  3
Size
  2
SIZE
 70
     0
1001
GENIUS_GENTRA_14
1002
{
1070
     3
1000
GENTRAPR,%s,(GENMSG gentitis 88)
1000
Size
1000
ENU
1070
     0
1070
     0
1002
}
  0
ATTDEF
  5
29C8
  8
PAPER_OUTLINES
 10
254.7030753764308031
 20
24.0838926461437985
 30
0.0
 40
3.0
  1

  7
ACISOTS
  3
Issue Date
  2
ISSUE_DATE
 70
     0
1001
GENIUS_GENTRA_14
1002
{
1070
     3
1000
GENTRAPR,%s,(GENMSG gentitis 82)
1000
Issue Date
1000
ENU
1070
     0
1070
     0
1002
}
  0
ATTDEF
  5
29C9
  8
PAPER_OUTLINES
 10
277.9557841116940722
 20
24.0838926461437985
 30
0.0
 40
3.0
  1

  7
ACISOTS
  3
Issued by
  2
ISSUED_BY
 70
     0
1001
GENIUS_GENTRA_14
1002
{
1070
     3
1000
GENTRAPR,%s,(GENMSG gentitis 83)
1000
Issued by
1000
ENU
1070
     0
1070
     0
1002
}
  0
ATTDEF
  5
29CA
  8
PAPER_OUTLINES
 10
254.7030753764308031
 20
30.17061898707993
 30
0.0
 40
3.0
  1

  7
ACISOTS
  3
Approval Date
  2
APPROVAL_DATE
 70
     0
1001
GENIUS_GENTRA_14
1002
{
1070
     3
1000
GENTRAPR,%s,(GENMSG gentitis 80)
1000
Approval Date
1000
ENU
1070
     0
1070
     0
1002
}
  0
ATTDEF
  5
29CB
  8
PAPER_OUTLINES
 10
277.9557841116940722
 20
30.17061898707993
 30
0.0
 40
3.0
  1

  7
ACISOTS
  3
Approved by
  2
APPROVED_BY
 70
     0
1001
GENIUS_GENTRA_14
1002
{
1070
     3
1000
GENTRAPR,%s,(GENMSG gentitis 81)
1000
Approved by
1000
ENU
1070
     0
1070
     0
1002
}
  0
ATTDEF
  5
29CC
  8
PAPER_OUTLINES
 10
293.6822793952027837
 20
53.0364042887786127
 30
0.0
 40
3.0
  1

  7
ACISOTS
  3
FSCM Number
  2
FSCM_NO
 70
     0
1001
GENIUS_GENTRA_14
1002
{
1070
     3
1000
GENTRAPR,%s,(GENMSG gentitis 86)
1000
FSCM Number
1000
ENU
1070
     0
1070
     0
1002
}
  0
ATTDEF
  5
29CD
  8
PAPER_OUTLINES
 10
328.7853977671368852
 20
43.1363952249816975
 30
0.0
 40
3.5
  1

  7
ACISOTS
  3
Design activity
  2
DESIGN_ACTIVITY
 70
     0
1001
GENIUS_GENTRA_14
1002
{
1070
     3
1000
GENTRAPR,%s,(GENMSG gentitis 75)
1000
Design activity
1000
ENU
1070
     0
1070
     0
1002
}
  0
ATTDEF
  5
29CE
  8
PAPER_OUTLINES
 10
328.7853977634139824
 20
25.4427278279336484
 30
0.0
 40
3.0
  1

  7
ACISOTS
  3
Drawing Subtitle
  2
DRAWING_SUBTITLE
 70
     0
1001
GENIUS_GENTRA_14
1002
{
1070
     3
1000
GENTRAPR,%s,(GENMSG gentitis 77)
1000
Drawing Subtitle
1000
ENU
1070
     0
1070
     0
1002
}
  0
ENDBLK
  5
1BC5
  8
0
  0
BLOCK
  8
0
  2
*U3
 70
     1
 10
0.0
 20
0.0
 30
0.0
  3
*U3
  1

  0
TEXT
  5
4A05
  8
PAPER_OUTLINES
 10
237.125
 20
280.2300000000000182
 30
0.0
 40
2.5
  1
RevNo
  7
ISO_PROPORTIONAL
  0
TEXT
  5
4A06
  8
PAPER_OUTLINES
 10
249.125
 20
280.2300000000000182
 30
0.0
 40
2.5
  1
Revision note
  7
ISO_PROPORTIONAL
  0
TEXT
  5
4A07
  8
PAPER_OUTLINES
 10
356.3121426282028779
 20
280.2126140879341847
 30
0.0
 40
2.5
  1
Date
  7
ISO_PROPORTIONAL
  0
TEXT
  5
4A08
  8
PAPER_OUTLINES
 10
376.4111583762344821
 20
280.2300000000000182
 30
0.0
 40
2.5
  1
Signature
  7
ISO_PROPORTIONAL
  0
TEXT
  5
4A09
  8
PAPER_OUTLINES
 10
393.4490307408083254
 20
280.2300000000000182
 30
0.0
 40
2.5
  1
Checked
  7
ISO_PROPORTIONAL
  0
LINE
  5
4A0A
  8
PAPER_OUTLINES
 10
236.0
 20
284.2300000000000182
 30
0.0
 11
407.0
 21
284.2300000000000182
 31
0.0
  0
LINE
  5
4A0B
  8
PAPER_OUTLINES
 10
236.0
 20
277.8966666666667038
 30
0.0
 11
407.0
 21
277.8966666666667038
 31
0.0
  0
LINE
  5
4A0C
  8
PAPER_OUTLINES
 10
236.0
 20
271.5633333333333894
 30
0.0
 11
407.0
 21
271.5633333333333894
 31
0.0
  0
LINE
  5
4A0D
  8
PAPER_OUTLINES
 10
236.0
 20
284.2300000000000182
 30
0.0
 11
236.0
 21
271.5633333333333894
 31
0.0
  0
LINE
  5
4A0E
  8
PAPER_OUTLINES
 10
248.0
 20
284.2300000000000182
 30
0.0
 11
248.0
 21
271.5633333333333894
 31
0.0
  0
LINE
  5
4A0F
  8
PAPER_OUTLINES
 10
355.1871426282028779
 20
284.2300000000000182
 30
0.0
 11
355.1871426282028779
 21
271.5633333333333894
 31
0.0
  0
LINE
  5
4A10
  8
PAPER_OUTLINES
 10
375.1871426282029915
 20
284.2300000000000182
 30
0.0
 11
375.1871426282029915
 21
271.5633333333333894
 31
0.0
  0
LINE
  5
4A11
  8
PAPER_OUTLINES
 10
392.2075331763908252
 20
284.2300000000000182
 30
0.0
 11
392.2075331763908252
 21
271.5633333333333894
 31
0.0
  0
LINE
  5
4A12
  8
PAPER_OUTLINES
 10
407.0
 20
284.2300000000000182
 30
0.0
 11
407.0
 21
271.5633333333333894
 31
0.0
  0
LINE
  5
4A13
  8
PAPER_OUTLINES
 62
     8
 10
236.0
 20
284.2300000000000182
 30
0.0
 11
236.0
 21
284.2300000000000182
 31
0.0
  0
ENDBLK
  5
4A15
  8
0
  0
BLOCK
  8
0
  2
*U4
 70
     1
 10
0.0
 20
0.0
 30
0.0
  3
*U4
  1

  0
TEXT
  5
4A17
  8
PAPER_OUTLINES
 10
324.5803133731138814
 20
19.3952450296252294
 30
0.0
 40
2.0
  1
DWG NO
  7
ACISOTS
  0
ENDBLK
  5
4A19
  8
0
  0
BLOCK
  8
0
  2
VIEW_CALLOUT
 70
     2
 10
0.0
 20
0.0
 30
0.0
  3
VIEW_CALLOUT
  1

  0
ATTDEF
  5
28F8
  8
0
 62
     7
 10
-17.2619047619047592
 20
-2.5
 30
0.0
 40
5.0
  1
VIEWTITLE
 72
     1
 11
0.0
 21
0.0
 31
0.0
  3
View Title
  2
VIEWTITLE
 70
     8
 74
     2
  0
ENDBLK
  5
24DC
  8
0
  0
BLOCK
  8
0
  2
VIEW_TITLE
 70
     2
 10
0.0
 20
0.0
 30
0.0
  3
VIEW_TITLE
  1

  0
ATTDEF
  5
291F
  8
0
 62
     7
 10
-40.5478371486518725
 20
1.6666666666666661
 30
0.0
 40
5.0
  1
VIEWTITLE
 72
     2
 11
-6.0240276248423452
 21
0.0
 31
0.0
  3
View Title
  2
VIEWTITLE
 70
     8
 74
     1
  0
ATTDEF
  5
2924
  8
0
 62
     7
 10
0.0000000000000001
 20
1.6666666666666661
 30
0.0
 40
5.0
  1
(ViewportScale)
 11
0.0
 21
0.0
 31
0.0
  3
Viewport Scale
  2
VIEWPORTSCALE
 70
     8
 74
     1
  0
ENDBLK
  5
24EB
  8
0
  0
BLOCK
  8
0
  2
*U7
 70
     1
 10
0.0
 20
0.0
 30
0.0
  3
*U7
  1

  0
INSERT
  5
2C40
  8
PAPER_OUTLINES
  2
*U8
 10
0.0
 20
0.0
 30
0.0
  0
INSERT
  5
2C41
  8
PAPER_OUTLINES
  2
*U9
 10
0.0
 20
0.0
 30
0.0
  0
INSERT
  5
2C42
  8
PAPER_OUTLINES
  2
*U10
 10
0.0
 20
0.0
 30
0.0
  0
INSERT
  5
2C43
  8
PAPER_OUTLINES
  2
*U11
 10
0.0
 20
0.0
 30
0.0
  0
INSERT
  5
2C44
  8
PAPER_OUTLINES
  2
*U12
 10
0.0
 20
0.0
 30
0.0
  0
LINE
  5
2C45
  8
PAPER_OUTLINES
  6
BYBLOCK
 62
     0
 10
0.0
 20
0.0
 30
0.0
 11
171.0
 21
0.0
 31
0.0
  0
LINE
  5
2C46
  8
PAPER_OUTLINES
  6
BYBLOCK
 62
     0
 10
0.0
 20
-6.3333333333333126
 30
0.0
 11
171.0
 21
-6.3333333333333126
 31
0.0
  0
LINE
  5
2C47
  8
PAPER_OUTLINES
  6
BYBLOCK
 62
     0
 10
0.0
 20
-12.6666666666666305
 30
0.0
 11
171.0
 21
-12.6666666666666305
 31
0.0
  0
LINE
  5
2C48
  8
PAPER_OUTLINES
  6
BYBLOCK
 62
     0
 10
0.0
 20
0.0
 30
0.0
 11
0.0
 21
-12.6666666666666305
 31
0.0
  0
LINE
  5
2C49
  8
PAPER_OUTLINES
  6
BYBLOCK
 62
     0
 10
12.0
 20
0.0
 30
0.0
 11
12.0
 21
-12.6666666666666305
 31
0.0
  0
LINE
  5
2C4A
  8
PAPER_OUTLINES
  6
BYBLOCK
 62
     0
 10
119.1871426282030058
 20
0.0
 30
0.0
 11
119.1871426282030058
 21
-12.6666666666666305
 31
0.0
  0
LINE
  5
2C4B
  8
PAPER_OUTLINES
  6
BYBLOCK
 62
     0
 10
139.1871426282029915
 20
0.0
 30
0.0
 11
139.1871426282029915
 21
-12.6666666666666305
 31
0.0
  0
LINE
  5
2C4C
  8
PAPER_OUTLINES
  6
BYBLOCK
 62
     0
 10
156.2075331763907968
 20
0.0
 30
0.0
 11
156.2075331763907968
 21
-12.6666666666666305
 31
0.0
  0
LINE
  5
2C4D
  8
PAPER_OUTLINES
  6
BYBLOCK
 62
     0
 10
171.0
 20
0.0
 30
0.0
 11
171.0
 21
-12.6666666666666305
 31
0.0
  0
LINE
  5
2C4E
  8
DEFPOINTS
 62
     8
 10
0.0
 20
0.0
 30
0.0
 11
0.0
 21
0.0
 31
0.0
  0
ENDBLK
  5
2BFF
  8
0
  0
BLOCK
  8
0
  2
*U8
 70
     1
 10
0.0
 20
0.0
 30
0.0
  3
*U8
  1

  0
TEXT
  5
4A1B
  8
PAPER_OUTLINES
 62
     0
 10
1.125
 20
-4.0
 30
0.0
 40
2.5
  1
RevNo
  7
ISO_PROPORTIONAL
  0
ENDBLK
  5
4A1D
  8
0
  0
BLOCK
  8
0
  2
*U9
 70
     1
 10
0.0
 20
0.0
 30
0.0
  3
*U9
  1

  0
TEXT
  5
4A1F
  8
PAPER_OUTLINES
 62
     0
 10
13.125
 20
-4.0
 30
0.0
 40
2.5
  1
Revision note
  7
ISO_PROPORTIONAL
  0
ENDBLK
  5
4A21
  8
0
  0
BLOCK
  8
0
  2
*U10
 70
     1
 10
0.0
 20
0.0
 30
0.0
  3
*U10
  1

  0
TEXT
  5
4A23
  8
PAPER_OUTLINES
 62
     0
 10
120.3121426282030058
 20
-4.0173859120657509
 30
0.0
 40
2.5
  1
Date
  7
ISO_PROPORTIONAL
  0
ENDBLK
  5
4A25
  8
0
  0
BLOCK
  8
0
  2
*U11
 70
     1
 10
0.0
 20
0.0
 30
0.0
  3
*U11
  1

  0
TEXT
  5
4A27
  8
PAPER_OUTLINES
 62
     0
 10
140.4111583762345106
 20
-4.0
 30
0.0
 40
2.5
  1
Signature
  7
ISO_PROPORTIONAL
  0
ENDBLK
  5
4A29
  8
0
  0
BLOCK
  8
0
  2
*U12
 70
     1
 10
0.0
 20
0.0
 30
0.0
  3
*U12
  1

  0
TEXT
  5
4A2B
  8
PAPER_OUTLINES
 62
     0
 10
157.4490307408082117
 20
-4.0
 30
0.0
 40
2.5
  1
Checked
  7
ISO_PROPORTIONAL
  0
ENDBLK
  5
4A2D
  8
0
  0
BLOCK
  8
0
  2
_DETAILCALLOUT
 70
     2
 10
0.0
 20
0.0
 30
0.0
  3
_DETAILCALLOUT
  1

  0
CIRCLE
  5
340F
  8
0
  6
BYBLOCK
 62
     0
 10
0.0
 20
0.0
 30
0.0
 40
8.0
  0
LINE
  5
3410
  8
0
  6
BYBLOCK
 62
     0
 10
8.0
 20
0.0
 30
0.0
 11
-8.0
 21
0.0
 31
0.0
  0
ATTDEF
  5
3411
  8
THICKENED_END__SECTION_LIN
 62
     0
 10
-11.6999999999999904
 20
1.0
 30
0.0
 40
3.0
  1
VIEWNUMBER
  7
ISO_PROPORTIONAL
 72
     1
 11
0.0
 21
1.0
 31
0.0
  3
Enter view number
  2
VIEWNUMBER
 70
     0
  0
ATTDEF
  5
3412
  8
THICKENED_END__SECTION_LIN
 62
     0
 10
-12.8405905511810996
 20
-6.0
 30
0.0
 40
3.0
  1
SHEETNUMBER
  7
ISO_PROPORTIONAL
 72
     1
 11
0.0
 21
-6.0
 31
0.0
  3
Enter sheet number
  2
SHEETNUMBER
 70
     0
  0
ENDBLK
  5
3414
  8
0
  0
BLOCK
  8
0
  2
_TAGCIRCLE
 70
     2
 10
0.0
 20
0.0
 30
0.0
  3
_TAGCIRCLE
  1

  0
CIRCLE
  5
3ED7
  8
0
  6
BYBLOCK
 62
     0
 10
0.0
 20
0.0
 30
0.0
 40
4.0
  0
ATTDEF
  5
3ED8
  8
DIMENSIONS
 62
     0
 10
-10.9499999999999993
 20
-1.5
 30
0.0
 40
3.0
  1
TAGNUMBER
  7
ISO_PROPORTIONAL
 72
     1
 11
0.0
 21
-1.5
 31
0.0
  3
Enter tag number
  2
TAGNUMBER
 70
     0
  0
ENDBLK
  5
3EDA
  8
0
  0
BLOCK
  8
0
  2
*D15
 70
     1
 10
0.0
 20
0.0
 30
0.0
  3
*D15
  1

  0
LINE
  5
45BB
  8
PAPER_OUTLINES
 62
     0
 10
420.0
 20
298.0
 30
0.0
 11
420.0
 21
318.0
 31
0.0
  0
LINE
  5
45BC
  8
PAPER_OUTLINES
 62
     0
 10
0.0000000000000001
 20
298.0
 30
0.0
 11
0.0000000000000013
 21
318.0
 31
0.0
  0
LINE
  5
45BD
  8
PAPER_OUTLINES
 62
     0
 10
418.75
 20
317.0
 30
0.0
 11
1.2500000000000011
 21
317.0
 31
0.0
  0
SOLID
  5
45BE
  8
PAPER_OUTLINES
 62
     0
 10
418.75
 20
317.2083333333333144
 30
0.0
 11
418.75
 21
316.7916666666666856
 31
0.0
 12
420.0
 22
317.0
 32
0.0
 13
420.0
 23
317.0
 33
0.0
  0
SOLID
  5
45BF
  8
PAPER_OUTLINES
 62
     0
 10
1.2500000000000011
 20
317.2083333333333144
 30
0.0
 11
1.2500000000000011
 21
316.7916666666666856
 31
0.0
 12
0.0000000000000012
 22
317.0
 32
0.0
 13
0.0000000000000012
 23
317.0
 33
0.0
  0
INSERT
  5
45C0
  8
PAPER_OUTLINES
  2
*U16
 10
0.0
 20
0.0
 30
0.0
  0
POINT
  5
45C1
  8
DEFPOINTS
 62
     0
 10
420.0
 20
297.0
 30
0.0
  0
POINT
  5
45C2
  8
DEFPOINTS
 62
     0
 10
0.0
 20
297.0
 30
0.0
  0
POINT
  5
45C3
  8
DEFPOINTS
 62
     0
 10
0.0000000000000012
 20
317.0
 30
0.0
  0
ENDBLK
  5
45BA
  8
0
  0
BLOCK
  8
0
  2
*U16
 70
     1
 10
0.0
 20
0.0
 30
0.0
  3
*U16
  1

  0
TEXT
  5
4A6D
  8
PAPER_OUTLINES
 62
     0
 10
208.071428571428612
 20
317.3125
 30
0.0
 40
1.5
  1
420
  0
ENDBLK
  5
4A6F
  8
0
  0
BLOCK
  8
0
  2
*D17
 70
     1
 10
0.0
 20
0.0
 30
0.0
  3
*D17
  1

  0
LINE
  5
45CD
  8
PAPER_OUTLINES
 62
     0
 10
297.0
 20
-1.0
 30
0.0
 11
297.0
 21
-21.0
 31
0.0
  0
LINE
  5
45CE
  8
PAPER_OUTLINES
 62
     0
 10
-0.0000000000000001
 20
-1.0
 30
0.0
 11
-0.0000000000000013
 21
-21.0
 31
0.0
  0
LINE
  5
45CF
  8
PAPER_OUTLINES
 62
     0
 10
295.75
 20
-20.0
 30
0.0
 11
1.249999999999998
 21
-20.0
 31
0.0
  0
SOLID
  5
45D0
  8
PAPER_OUTLINES
 62
     0
 10
295.75
 20
-19.7916666666666714
 30
0.0
 11
295.75
 21
-20.2083333333333286
 31
0.0
 12
297.0
 22
-20.0
 32
0.0
 13
297.0
 23
-20.0
 33
0.0
  0
SOLID
  5
45D1
  8
PAPER_OUTLINES
 62
     0
 10
1.249999999999998
 20
-19.7916666666666714
 30
0.0
 11
1.249999999999998
 21
-20.2083333333333286
 31
0.0
 12
-0.0000000000000012
 22
-20.0
 32
0.0
 13
-0.0000000000000012
 23
-20.0
 33
0.0
  0
INSERT
  5
45D2
  8
PAPER_OUTLINES
  2
*U18
 10
0.0
 20
0.0
 30
0.0
  0
POINT
  5
45D3
  8
DEFPOINTS
 62
     0
 10
297.0
 20
0.0
 30
0.0
  0
POINT
  5
45D4
  8
DEFPOINTS
 62
     0
 10
0.0
 20
0.0
 30
0.0
  0
POINT
  5
45D5
  8
DEFPOINTS
 62
     0
 10
-0.0000000000000012
 20
-20.0
 30
0.0
  0
ENDBLK
  5
45CC
  8
0
  0
BLOCK
  8
0
  2
*U18
 70
     1
 10
0.0
 20
0.0
 30
0.0
  3
*U18
  1

  0
TEXT
  5
4A71
  8
PAPER_OUTLINES
 62
     0
 10
146.571428571428612
 20
-19.6875
 30
0.0
 40
1.5
  1
297
  0
ENDBLK
  5
4A73
  8
0
  0
BLOCK
  8
0
  2
*D19
 70
     1
 10
0.0
 20
0.0
 30
0.0
  3
*D19
  1

  0
LINE
  5
45EF
  8
PAPER_OUTLINES
 62
     0
 10
-1.0
 20
297.0
 30
0.0
 11
-52.9999999999999716
 21
297.0
 31
0.0
  0
LINE
  5
45F0
  8
PAPER_OUTLINES
 62
     0
 10
-1.0
 20
0.0000000000000003
 30
0.0
 11
-53.0000000000000284
 21
0.000000000000015
 31
0.0
  0
LINE
  5
45F1
  8
PAPER_OUTLINES
 62
     0
 10
-51.9999999999999574
 20
295.75
 30
0.0
 11
-52.0000000000000071
 21
1.250000000000014
 31
0.0
  0
SOLID
  5
45F2
  8
PAPER_OUTLINES
 62
     0
 10
-52.2083333333333002
 20
295.75
 30
0.0
 11
-51.7916666666666288
 21
295.75
 31
0.0
 12
-51.9999999999999574
 22
297.0
 32
0.0
 13
-51.9999999999999574
 23
297.0
 33
0.0
  0
SOLID
  5
45F3
  8
PAPER_OUTLINES
 62
     0
 10
-52.2083333333333428
 20
1.250000000000014
 30
0.0
 11
-51.7916666666666785
 21
1.250000000000014
 31
0.0
 12
-52.0000000000000071
 22
0.0000000000000147
 32
0.0
 13
-52.0000000000000071
 23
0.0000000000000147
 33
0.0
  0
INSERT
  5
45F4
  8
PAPER_OUTLINES
  2
*U20
 10
0.0
 20
0.0
 30
0.0
  0
POINT
  5
45F5
  8
DEFPOINTS
 62
     0
 10
0.0
 20
297.0
 30
0.0
  0
POINT
  5
45F6
  8
DEFPOINTS
 62
     0
 10
0.0
 20
0.0
 30
0.0
  0
POINT
  5
45F7
  8
DEFPOINTS
 62
     0
 10
-52.0000000000000071
 20
0.0000000000000147
 30
0.0
  0
ENDBLK
  5
45EE
  8
0
  0
BLOCK
  8
0
  2
*U20
 70
     1
 10
0.0
 20
0.0
 30
0.0
  3
*U20
  1

  0
TEXT
  5
4A75
  8
PAPER_OUTLINES
 62
     0
 10
-52.3125000000000071
 20
146.571428571428612
 30
0.0
 40
1.5
  1
297
 50
90.0
  0
ENDBLK
  5
4A77
  8
0
  0
BLOCK
  8
0
  2
*D21
 70
     1
 10
0.0
 20
0.0
 30
0.0
  3
*D21
  1

  0
LINE
  5
460D
  8
PAPER_OUTLINES
 62
     0
 10
-1.0
 20
0.0000000000000003
 30
0.0
 11
-30.0000000000000391
 21
0.0000000000000085
 31
0.0
  0
LINE
  5
460E
  8
PAPER_OUTLINES
 62
     0
 10
-1.0
 20
210.0
 30
0.0
 11
-30.0
 21
210.0
 31
0.0
  0
LINE
  5
460F
  8
PAPER_OUTLINES
 62
     0
 10
-29.0000000000000391
 20
1.2500000000000071
 30
0.0
 11
-29.0
 21
208.75
 31
0.0
  0
SOLID
  5
4610
  8
PAPER_OUTLINES
 62
     0
 10
-29.2083333333333783
 20
1.2500000000000071
 30
0.0
 11
-28.7916666666667211
 21
1.2500000000000071
 31
0.0
 12
-29.0000000000000391
 22
0.0000000000000082
 32
0.0
 13
-29.0000000000000391
 23
0.0000000000000082
 33
0.0
  0
SOLID
  5
4611
  8
PAPER_OUTLINES
 62
     0
 10
-29.2083333333333215
 20
208.75
 30
0.0
 11
-28.7916666666666607
 21
208.75
 31
0.0
 12
-29.0
 22
210.0
 32
0.0
 13
-29.0
 23
210.0
 33
0.0
  0
INSERT
  5
4612
  8
PAPER_OUTLINES
  2
*U22
 10
0.0
 20
0.0
 30
0.0
  0
POINT
  5
4613
  8
DEFPOINTS
 62
     0
 10
0.0
 20
0.0
 30
0.0
  0
POINT
  5
4614
  8
DEFPOINTS
 62
     0
 10
0.0
 20
210.0
 30
0.0
  0
POINT
  5
4615
  8
DEFPOINTS
 62
     0
 10
-29.0
 20
210.0
 30
0.0
  0
ENDBLK
  5
460C
  8
0
  0
BLOCK
  8
0
  2
*U22
 70
     1
 10
0.0
 20
0.0
 30
0.0
  3
*U22
  1

  0
TEXT
  5
4A79
  8
PAPER_OUTLINES
 62
     0
 10
-29.3125000000000391
 20
103.214285714285694
 30
0.0
 40
1.5
  1
210
 50
90.0
  0
ENDBLK
  5
4A7B
  8
0
  0
ENDSEC
  0
SECTION
  2
ENTITIES
  0
POLYLINE
  5
4B84
  8
PAPER_OUTLINES
 66
     1
 10
0.0
 20
0.0
 30
0.0
 70
     1
  0
VERTEX
  5
4C21
  8
PAPER_OUTLINES
 10
84.9976755838649183
 20
154.2252369536390972
 30
0.0
  0
VERTEX
  5
4C22
  8
PAPER_OUTLINES
 10
400.7466755838648282
 20
154.2252369536390972
 30
0.0
 42
-0.4142135623730953
  0
VERTEX
  5
4C23
  8
PAPER_OUTLINES
 10
404.7466755838648282
 20
150.2252369536390972
 30
0.0
  0
VERTEX
  5
4C24
  8
PAPER_OUTLINES
 10
404.7466755838647146
 20
44.0252369536391299
 30
0.0
 42
-0.4142135623730948
  0
VERTEX
  5
4C25
  8
PAPER_OUTLINES
 10
400.7466755838647146
 20
40.0252369536391228
 30
0.0
  0
VERTEX
  5
4C26
  8
PAPER_OUTLINES
 10
84.9976755838648899
 20
40.0252369536391228
 30
0.0
 42
-0.4142135623730951
  0
VERTEX
  5
4C27
  8
PAPER_OUTLINES
 10
80.9976755838648756
 20
44.0252369536391228
 30
0.0
  0
VERTEX
  5
4C28
  8
PAPER_OUTLINES
 10
80.9976755838649183
 20
150.2252369536390972
 30
0.0
 42
-0.4142135623730951
  0
SEQEND
  5
4C29
  8
PAPER_OUTLINES
  0
CIRCLE
  5
4B85
  8
PAPER_OUTLINES
 10
85.9976755838649183
 20
149.2252369536390972
 30
0.0
 40
2.2000000000000002
  0
CIRCLE
  5
4B86
  8
PAPER_OUTLINES
 10
85.9976755838648756
 20
45.0252369536391228
 30
0.0
 40
2.2000000000000002
  0
CIRCLE
  5
4B87
  8
PAPER_OUTLINES
 10
242.872175583864788
 20
45.0252369536391228
 30
0.0
 40
2.2000000000000002
  0
CIRCLE
  5
4B88
  8
PAPER_OUTLINES
 10
399.7466755838648282
 20
45.0252369536391228
 30
0.0
 40
2.2000000000000002
  0
CIRCLE
  5
4B89
  8
PAPER_OUTLINES
 10
399.7466755838648851
 20
149.2252369536390972
 30
0.0
 40
2.2000000000000002
  0
CIRCLE
  5
4B8A
  8
PAPER_OUTLINES
 10
242.8721755838649017
 20
149.2252369536390972
 30
0.0
 40
2.2000000000000002
  0
POLYLINE
  5
4B8B
  8
PAPER_OUTLINES
 66
     1
 10
0.0
 20
0.0
 30
0.0
 70
     1
  0
VERTEX
  5
4C2A
  8
PAPER_OUTLINES
 10
92.4976755838649183
 20
145.2252369536390972
 30
0.0
  0
VERTEX
  5
4C2B
  8
PAPER_OUTLINES
 10
393.2466755838648851
 20
145.2252369536390972
 30
0.0
 42
-0.4142135623730956
  0
VERTEX
  5
4C2C
  8
PAPER_OUTLINES
 10
395.7466755838648851
 20
142.7252369536390972
 30
0.0
  0
VERTEX
  5
4C2D
  8
PAPER_OUTLINES
 10
395.7466755838648282
 20
51.525236953639137
 30
0.0
 42
-0.4142135623730946
  0
VERTEX
  5
4C2E
  8
PAPER_OUTLINES
 10
393.2466755838648282
 20
49.025236953639137
 30
0.0
  0
VERTEX
  5
4C2F
  8
PAPER_OUTLINES
 10
92.4976755838649183
 20
49.0252369536391228
 30
0.0
 42
-0.4142135623730951
  0
VERTEX
  5
4C30
  8
PAPER_OUTLINES
 10
89.9976755838648472
 20
51.5252369536391228
 30
0.0
  0
VERTEX
  5
4C31
  8
PAPER_OUTLINES
 10
89.9976755838649183
 20
142.7252369536390972
 30
0.0
 42
-0.414213562373095
  0
SEQEND
  5
4C32
  8
PAPER_OUTLINES
  0
VIEWPORT
  5
2E
 67
     1
  8
0
 10
213.6451310341261092
 20
136.720572095389997
 30
0.0
 40
643.9726777524817862
 41
399.696503355025925
 68
     1
 69
     1
1001
ACAD
1000
MVIEW
1002
{
1070
    16
1010
0.0
1020
0.0
1030
0.0
1010
0.0
1020
0.0
1030
1.0
1040
0.0
1040
399.696503355025925
1040
213.6451310341261092
1040
136.720572095389997
1040
50.0
1040
0.0
1040
0.0
1070
     0
1070
  6629
1070
     1
1070
     3
1070
     0
1070
     0
1070
     0
1070
     0
1040
0.0
1040
0.0
1040
0.0
1040
10.0
1040
10.0
1040
10.0
1040
10.0
1070
     0
1002
{
1002
}
1002
}
  0
VIEWPORT
  5
2E43
 67
     1
  8
0
 10
199.2439997487134065
 20
143.5245737949761917
 30
0.0
 40
394.1855742813629035
 41
271.8443913818916258
 68
     2
 69
     2
1001
ACAD
1000
MVIEW
1002
{
1070
    16
1010
253.96206224495279
1020
260.7288007959501215
1030
0.0
1010
0.0
1020
0.0
1030
410.7680473390622069
1040
0.0
1040
135.9221959250330087
1040
8.1881326499703775
1040
-51.6927526954460177
1040
50.0
1040
0.0
1040
0.0
1070
     0
1070
  1000
1070
     1
1070
     3
1070
     0
1070
     0
1070
     0
1070
     0
1040
0.0
1040
0.0
1040
0.0
1040
10.0
1040
10.0
1040
10.0
1040
10.0
1070
     0
1002
{
1002
}
1002
}
1001
ACAD_NAV_VCDISPLAY
1070
     3
  0
POLYLINE
  5
2E85
 67
     1
  8
PAPER_OUTLINES
 66
     1
 10
0.0
 20
0.0
 30
0.0
 70
     1
  0
VERTEX
  5
4BD1
 67
     1
  8
PAPER_OUTLINES
 10
-0.8775120422290001
 20
281.442515225991599
 30
0.0
  0
VERTEX
  5
4BD2
 67
     1
  8
PAPER_OUTLINES
 10
399.1224879577709999
 20
281.442515225991599
 30
0.0
  0
VERTEX
  5
4BD3
 67
     1
  8
PAPER_OUTLINES
 10
399.1224879577709999
 20
4.4425152259916532
 30
0.0
  0
VERTEX
  5
4BD4
 67
     1
  8
PAPER_OUTLINES
 10
-0.8775120422290001
 20
4.4425152259916532
 30
0.0
  0
SEQEND
  5
4BD5
 67
     1
  8
PAPER_OUTLINES
  0
ENDSEC
  0
EOF
