  0
SECTION
  2
HEADER
  9
$ACADVER
  1
AC1009
  9
$INSBASE
 10
0.0
 20
0.0
 30
0.0
  9
$EXTMIN
 10
-4.5073999957740014
 20
1.813499999999999
 30
0.0
  9
$EXTMAX
 10
319.2416000042259725
 20
229.9575383463476896
 30
0.0
  9
$LIMMIN
 10
0.0
 20
0.0
  9
$LIMMAX
 10
12.0
 20
9.0
  9
$ORTHOMODE
 70
     0
  9
$REGENMODE
 70
     1
  9
$FILLMODE
 70
     0
  9
$QTEXTMODE
 70
     0
  9
$MIRRTEXT
 70
     0
  9
$DRAGMODE
 70
     2
  9
$LTSCALE
 40
1.0
  9
$OSMODE
 70
   311
  9
$ATTMODE
 70
     1
  9
$TEXTSIZE
 40
0.2
  9
$TRACEWID
 40
0.05
  9
$TEXTSTYLE
  7
STANDARD
  9
$CLAYER
  8
0
  9
$CELTYPE
  6
CONTINUOUS
  9
$CECOLOR
 62
   256
  9
$DIMSCALE
 40
1.0
  9
$DIMASZ
 40
0.18
  9
$DIMEXO
 40
0.0625
  9
$DIMDLI
 40
0.38
  9
$DIMRND
 40
0.0
  9
$DIMDLE
 40
0.0
  9
$DIMEXE
 40
0.18
  9
$DIMTP
 40
0.0
  9
$DIMTM
 40
0.0
  9
$DIMTXT
 40
0.18
  9
$DIMCEN
 40
0.09
  9
$DIMTSZ
 40
0.0
  9
$DIMTOL
 70
     0
  9
$DIMLIM
 70
     0
  9
$DIMTIH
 70
     1
  9
$DIMTOH
 70
     1
  9
$DIMSE1
 70
     0
  9
$DIMSE2
 70
     0
  9
$DIMTAD
 70
     0
  9
$DIMZIN
 70
     0
  9
$DIMBLK
  1

  9
$DIMASO
 70
     1
  9
$DIMSHO
 70
     1
  9
$DIMPOST
  1

  9
$DIMAPOST
  1

  9
$DIMALT
 70
     0
  9
$DIMALTD
 70
     2
  9
$DIMALTF
 40
25.3999999999999986
  9
$DIMLFAC
 40
1.0
  9
$DIMTOFL
 70
     0
  9
$DIMTVP
 40
0.0
  9
$DIMTIX
 70
     0
  9
$DIMSOXD
 70
     0
  9
$DIMSAH
 70
     0
  9
$DIMBLK1
  1

  9
$DIMBLK2
  1

  9
$DIMSTYLE
  2
STANDARD
  9
$DIMCLRD
 70
     0
  9
$DIMCLRE
 70
     0
  9
$DIMCLRT
 70
     0
  9
$DIMTFAC
 40
1.0
  9
$DIMGAP
 40
0.09
  9
$LUNITS
 70
     2
  9
$LUPREC
 70
     4
  9
$SKETCHINC
 40
0.1
  9
$FILLETRAD
 40
0.0
  9
$AUNITS
 70
     0
  9
$AUPREC
 70
     0
  9
$MENU
  1
.
  9
$ELEVATION
 40
0.0
  9
$PELEVATION
 40
0.0
  9
$THICKNESS
 40
0.0
  9
$LIMCHECK
 70
     0
  9
$BLIPMODE
 70
     0
  9
$CHAMFERA
 40
0.0
  9
$CHAMFERB
 40
0.0
  9
$SKPOLY
 70
     0
  9
$TDCREATE
 40
2459398.0082175931893289
  9
$TDUPDATE
 40
2459398.0128935188986361
  9
$TDINDWG
 40
0.0046759259
  9
$TDUSRTIMER
 40
0.0046759259
  9
$USRTIMER
 70
     1
  9
$ANGBASE
 50
0.0
  9
$ANGDIR
 70
     0
  9
$PDMODE
 70
     0
  9
$PDSIZE
 40
0.0
  9
$PLINEWID
 40
0.0
  9
$COORDS
 70
     1
  9
$SPLFRAME
 70
     1
  9
$SPLINETYPE
 70
     6
  9
$SPLINESEGS
 70
     8
  9
$ATTDIA
 70
     1
  9
$ATTREQ
 70
     1
  9
$HANDLING
 70
     1
  9
$HANDSEED
  5
56C
  9
$SURFTAB1
 70
     6
  9
$SURFTAB2
 70
     6
  9
$SURFTYPE
 70
     6
  9
$SURFU
 70
     6
  9
$SURFV
 70
     6
  9
$UCSNAME
  2

  9
$UCSORG
 10
0.0
 20
0.0
 30
0.0
  9
$UCSXDIR
 10
1.0
 20
0.0
 30
0.0
  9
$UCSYDIR
 10
0.0
 20
1.0
 30
0.0
  9
$PUCSNAME
  2

  9
$PUCSORG
 10
0.0
 20
0.0
 30
0.0
  9
$PUCSXDIR
 10
1.0
 20
0.0
 30
0.0
  9
$PUCSYDIR
 10
0.0
 20
1.0
 30
0.0
  9
$USERI1
 70
     0
  9
$USERI2
 70
     0
  9
$USERI3
 70
     0
  9
$USERI4
 70
     0
  9
$USERI5
 70
     0
  9
$USERR1
 40
0.0
  9
$USERR2
 40
0.0
  9
$USERR3
 40
0.0
  9
$USERR4
 40
0.0
  9
$USERR5
 40
0.0
  9
$WORLDVIEW
 70
     1
  9
$SHADEDGE
 70
     3
  9
$SHADEDIF
 70
    70
  9
$TILEMODE
 70
     1
  9
$MAXACTVP
 70
    64
  9
$PLIMCHECK
 70
     0
  9
$PEXTMIN
 10
1.0000000000000000E+20
 20
1.0000000000000000E+20
 30
1.0000000000000000E+20
  9
$PEXTMAX
 10
-1.0000000000000000E+20
 20
-1.0000000000000000E+20
 30
-1.0000000000000000E+20
  9
$PLIMMIN
 10
0.0
 20
0.0
  9
$PLIMMAX
 10
12.0
 20
9.0
  9
$UNITMODE
 70
     0
  9
$VISRETAIN
 70
     1
  9
$PLINEGEN
 70
     0
  9
$PSLTSCALE
 70
     1
  0
ENDSEC
  0
SECTION
  2
TABLES
  0
TABLE
  2
VPORT
 70
     1
  0
VPORT
  2
*ACTIVE
 70
     0
 10
0.0
 20
0.0
 11
1.0
 21
1.0
 12
222.982121256586197
 22
146.0453417398948091
 13
0.0
 23
0.0
 14
1.0
 24
1.0
 15
0.0
 25
0.0
 16
0.0
 26
0.0
 36
1.0
 17
0.0
 27
0.0
 37
0.0
 40
255.2434522817623019
 41
2.305925030229746
 42
50.0
 43
0.0
 44
0.0
 50
0.0
 51
0.0
 71
     0
 72
   100
 73
     1
 74
     1
 75
     0
 76
     0
 77
     0
 78
     0
  0
ENDTAB
  0
TABLE
  2
LTYPE
 70
     2
  0
LTYPE
  2
CONTINUOUS
 70
     0
  3
Solid line
 72
    65
 73
     0
 40
0.0
  0
ENDTAB
  0
TABLE
  2
LAYER
 70
     2
  0
LAYER
  2
0
 70
     0
 62
     7
  6
CONTINUOUS
  0
ENDTAB
  0
TABLE
  2
STYLE
 70
     3
  0
STYLE
  2
STANDARD
 70
     0
 40
0.0
 41
1.0
 50
0.0
 71
     0
 42
0.2
  3
txt
  4

  0
STYLE
  2
ANNOTATIVE
 70
     0
 40
0.0
 41
1.0
 50
0.0
 71
     0
 42
0.2
  3
txt
  4

  0
STYLE
  2
ISO_PROPORTIONAL
 70
     0
 40
0.0
 41
1.0
 50
0.0
 71
     0
 42
4.0
  3
isocp.shx
  4

  0
ENDTAB
  0
TABLE
  2
VIEW
 70
     0
  0
ENDTAB
  0
TABLE
  2
UCS
 70
     0
  0
ENDTAB
  0
TABLE
  2
APPID
 70
     5
  0
APPID
  2
ACAD
 70
     0
  0
APPID
  2
ACADANNOTATIVE
 70
     0
  0
APPID
  2
ACAD_NAV_VCDISPLAY
 70
     0
  0
APPID
  2
ACAD_EXEMPT_FROM_CAD_STANDARDS
 70
     0
  0
APPID
  2
ACAD_MLEADERVER
 70
     0
  0
ENDTAB
  0
TABLE
  2
DIMSTYLE
 70
     4
  0
DIMSTYLE
  2
STANDARD
 70
     0
  3

  4

  5

  6

  7

 40
1.0
 41
0.18
 42
0.0625
 43
0.38
 44
0.18
 45
0.0
 46
0.0
 47
0.0
 48
0.0
140
0.18
141
0.09
142
0.0
143
25.3999999999999986
144
1.0
145
0.0
146
1.0
147
0.09
 71
     0
 72
     0
 73
     1
 74
     1
 75
     0
 76
     0
 77
     0
 78
     0
170
     0
171
     2
172
     0
173
     0
174
     0
175
     0
176
     0
177
     0
178
     0
  0
DIMSTYLE
  2
ANNOTATIVE
 70
     0
  3

  4

  5

  6

  7

 40
1.0
 41
0.18
 42
0.0625
 43
0.38
 44
0.18
 45
0.0
 46
0.0
 47
0.0
 48
0.0
140
0.18
141
0.09
142
0.0
143
25.3999999999999986
144
1.0
145
0.0
146
1.0
147
0.09
 71
     0
 72
     0
 73
     1
 74
     1
 75
     0
 76
     0
 77
     0
 78
     0
170
     0
171
     2
172
     0
173
     0
174
     0
175
     0
176
     0
177
     0
178
     0
  0
DIMSTYLE
  2
BATH_ANNOTATIVE
 70
     0
  3

  4

  5

  6

  7

 40
1.0
 41
2.5
 42
2.0
 43
3.75
 44
2.0
 45
0.0
 46
0.0
 47
0.0
 48
0.0
140
3.0
141
2.5
142
0.0
143
0.03937007874016
144
1.0
145
0.0
146
1.0
147
0.625
 71
     0
 72
     0
 73
     0
 74
     0
 75
     0
 76
     0
 77
     1
 78
     8
170
     0
171
     3
172
     1
173
     0
174
     0
175
     0
176
     0
177
     0
178
     0
  0
ENDTAB
  0
ENDSEC
  0
SECTION
  2
BLOCKS
  0
BLOCK
  8
0
  2
$MODEL_SPACE
 70
     0
 10
0.0
 20
0.0
 30
0.0
  3
$MODEL_SPACE
  1

  0
ENDBLK
  5
71
  8
0
  0
BLOCK
 67
     1
  8
0
  2
$PAPER_SPACE
 70
     0
 10
0.0
 20
0.0
 30
0.0
  3
$PAPER_SPACE
  1

  0
ENDBLK
  5
6D
 67
     1
  8
0
  0
ENDSEC
  0
SECTION
  2
ENTITIES
  0
LINE
  5
79
  8
0
  6
CONTINUOUS
 10
128.9349500042260104
 20
141.757538346347701
 30
0.0
 11
128.9349500042260104
 21
137.0570383463476958
 31
0.0
  0
LINE
  5
7A
  8
0
  6
CONTINUOUS
 10
128.9349500042260104
 20
137.0570383463476958
 30
0.0
 11
89.3110500042260469
 21
137.0570383463476958
 31
0.0
  0
LINE
  5
7B
  8
0
  6
CONTINUOUS
 10
89.3110500042260469
 20
137.0570383463476958
 30
0.0
 11
89.3110500042260469
 21
140.2872383463476922
 31
0.0
  0
LINE
  5
7C
  8
0
  6
CONTINUOUS
 10
89.3110500042260469
 20
140.2872383463476922
 30
0.0
 11
82.5599500042260388
 21
140.2872383463476922
 31
0.0
  0
LINE
  5
7D
  8
0
  6
CONTINUOUS
 10
82.5599500042260388
 20
140.2872383463476922
 30
0.0
 11
82.5599500042260388
 21
137.0570383463476958
 31
0.0
  0
LINE
  5
7E
  8
0
  6
CONTINUOUS
 10
82.5599500042260388
 20
137.0570383463476958
 30
0.0
 11
81.7358500042260232
 21
137.0570383463476958
 31
0.0
  0
LINE
  5
7F
  8
0
  6
CONTINUOUS
 10
81.7358500042260232
 20
137.0570383463476958
 30
0.0
 11
81.7358500042260232
 21
134.2582783463477085
 31
0.0
  0
LINE
  5
80
  8
0
  6
CONTINUOUS
 10
81.7358500042260232
 20
134.2582783463477085
 30
0.0
 11
82.5599500042260388
 21
134.2582783463477085
 31
0.0
  0
LINE
  5
81
  8
0
  6
CONTINUOUS
 10
82.5599500042260388
 20
134.2582783463477085
 30
0.0
 11
82.5599500042260388
 21
127.9882083463477045
 31
0.0
  0
LINE
  5
82
  8
0
  6
CONTINUOUS
 10
82.5599500042260388
 20
127.9882083463477045
 30
0.0
 11
84.2849500042260331
 21
127.9882083463477045
 31
0.0
  0
LINE
  5
83
  8
0
  6
CONTINUOUS
 10
84.2849500042260331
 20
127.9882083463477045
 30
0.0
 11
84.2849500042260331
 21
126.7879383463477012
 31
0.0
  0
LINE
  5
84
  8
0
  6
CONTINUOUS
 10
84.2849500042260331
 20
126.7879383463477012
 30
0.0
 11
87.585550004226036
 21
126.7879383463477012
 31
0.0
  0
LINE
  5
85
  8
0
  6
CONTINUOUS
 10
87.585550004226036
 20
126.7879383463477012
 30
0.0
 11
87.585550004226036
 21
127.9882083463477045
 31
0.0
  0
LINE
  5
86
  8
0
  6
CONTINUOUS
 10
87.585550004226036
 20
127.9882083463477045
 30
0.0
 11
89.3110500042260469
 21
127.9882083463477045
 31
0.0
  0
LINE
  5
87
  8
0
  6
CONTINUOUS
 10
89.3110500042260469
 20
127.9882083463477045
 30
0.0
 11
89.3110500042260469
 21
132.4585483463476976
 31
0.0
  0
LINE
  5
88
  8
0
  6
CONTINUOUS
 10
89.3110500042260469
 20
132.4585483463476976
 30
0.0
 11
128.9349500042260104
 21
132.4585483463476976
 31
0.0
  0
LINE
  5
89
  8
0
  6
CONTINUOUS
 10
128.9349500042260104
 20
132.4585483463476976
 30
0.0
 11
128.9349500042260104
 21
127.7580783463477019
 31
0.0
  0
LINE
  5
8A
  8
0
  6
CONTINUOUS
 10
128.9349500042260104
 20
127.7580783463477019
 30
0.0
 11
142.9359500042259867
 21
127.7580783463477019
 31
0.0
  0
LINE
  5
8B
  8
0
  6
CONTINUOUS
 10
142.9359500042259867
 20
127.7580783463477019
 30
0.0
 11
142.9359500042259867
 21
132.4585483463476976
 31
0.0
  0
LINE
  5
8C
  8
0
  6
CONTINUOUS
 10
142.9359500042259867
 20
132.4585483463476976
 30
0.0
 11
182.5599500042260104
 21
132.4585483463476976
 31
0.0
  0
LINE
  5
8D
  8
0
  6
CONTINUOUS
 10
182.5599500042260104
 20
132.4585483463476976
 30
0.0
 11
182.5599500042260104
 21
127.9882083463477045
 31
0.0
  0
LINE
  5
8E
  8
0
  6
CONTINUOUS
 10
182.5599500042260104
 20
127.9882083463477045
 30
0.0
 11
184.2849500042260047
 21
127.9882083463477045
 31
0.0
  0
LINE
  5
8F
  8
0
  6
CONTINUOUS
 10
184.2849500042260047
 20
127.9882083463477045
 30
0.0
 11
184.2849500042260047
 21
126.7879383463477012
 31
0.0
  0
LINE
  5
90
  8
0
  6
CONTINUOUS
 10
184.2849500042260047
 20
126.7879383463477012
 30
0.0
 11
187.5859500042259924
 21
126.7879383463477012
 31
0.0
  0
LINE
  5
91
  8
0
  6
CONTINUOUS
 10
187.5859500042259924
 20
126.7879383463477012
 30
0.0
 11
187.5859500042259924
 21
127.9882083463477045
 31
0.0
  0
LINE
  5
92
  8
0
  6
CONTINUOUS
 10
187.5859500042259924
 20
127.9882083463477045
 30
0.0
 11
189.3109500042259867
 21
127.9882083463477045
 31
0.0
  0
LINE
  5
93
  8
0
  6
CONTINUOUS
 10
189.3109500042259867
 20
127.9882083463477045
 30
0.0
 11
189.3109500042259867
 21
134.2582783463477085
 31
0.0
  0
LINE
  5
94
  8
0
  6
CONTINUOUS
 10
189.3109500042259867
 20
134.2582783463477085
 30
0.0
 11
190.134950004225999
 21
134.2582783463477085
 31
0.0
  0
LINE
  5
95
  8
0
  6
CONTINUOUS
 10
190.134950004225999
 20
134.2582783463477085
 30
0.0
 11
190.134950004225999
 21
137.0570383463476958
 31
0.0
  0
LINE
  5
96
  8
0
  6
CONTINUOUS
 10
190.134950004225999
 20
137.0570383463476958
 30
0.0
 11
189.3109500042259867
 21
137.0570383463476958
 31
0.0
  0
LINE
  5
97
  8
0
  6
CONTINUOUS
 10
189.3109500042259867
 20
137.0570383463476958
 30
0.0
 11
189.3109500042259867
 21
140.2872383463476922
 31
0.0
  0
LINE
  5
98
  8
0
  6
CONTINUOUS
 10
189.3109500042259867
 20
140.2872383463476922
 30
0.0
 11
182.5599500042260104
 21
140.2872383463476922
 31
0.0
  0
LINE
  5
99
  8
0
  6
CONTINUOUS
 10
182.5599500042260104
 20
140.2872383463476922
 30
0.0
 11
182.5599500042260104
 21
137.0570383463476958
 31
0.0
  0
LINE
  5
9A
  8
0
  6
CONTINUOUS
 10
182.5599500042260104
 20
137.0570383463476958
 30
0.0
 11
142.9359500042259867
 21
137.0570383463476958
 31
0.0
  0
LINE
  5
9B
  8
0
  6
CONTINUOUS
 10
142.9359500042259867
 20
137.0570383463476958
 30
0.0
 11
142.9359500042259867
 21
141.757538346347701
 31
0.0
  0
LINE
  5
9C
  8
0
  6
CONTINUOUS
 10
142.9359500042259867
 20
141.757538346347701
 30
0.0
 11
128.9349500042260104
 21
141.757538346347701
 31
0.0
  0
LINE
  5
9D
  8
0
  6
CONTINUOUS
 10
293.2429500042259747
 20
141.757538346347701
 30
0.0
 11
307.2419500042259983
 21
141.757538346347701
 31
0.0
  0
LINE
  5
9E
  8
0
  6
CONTINUOUS
 10
307.2419500042259983
 20
141.757538346347701
 30
0.0
 11
307.2419500042259983
 21
127.7580783463477019
 31
0.0
  0
LINE
  5
9F
  8
0
  6
CONTINUOUS
 10
307.2419500042259983
 20
127.7580783463477019
 30
0.0
 11
293.2429500042259747
 21
127.7580783463477019
 31
0.0
  0
LINE
  5
A0
  8
0
  6
CONTINUOUS
 10
293.2429500042259747
 20
127.7580783463477019
 30
0.0
 11
293.2429500042259747
 21
141.757538346347701
 31
0.0
  0
LINE
  5
A1
  8
0
  6
CONTINUOUS
 10
274.1929500042260202
 20
141.757538346347701
 30
0.0
 11
288.191950004225987
 21
141.757538346347701
 31
0.0
  0
LINE
  5
A2
  8
0
  6
CONTINUOUS
 10
288.191950004225987
 20
141.757538346347701
 30
0.0
 11
288.191950004225987
 21
127.7580783463477019
 31
0.0
  0
LINE
  5
A3
  8
0
  6
CONTINUOUS
 10
288.191950004225987
 20
127.7580783463477019
 30
0.0
 11
274.1929500042260202
 21
127.7580783463477019
 31
0.0
  0
LINE
  5
A4
  8
0
  6
CONTINUOUS
 10
274.1929500042260202
 20
127.7580783463477019
 30
0.0
 11
274.1929500042260202
 21
141.757538346347701
 31
0.0
  0
LINE
  5
A5
  8
0
  6
CONTINUOUS
 10
255.1429500042260088
 20
141.757538346347701
 30
0.0
 11
269.1419500042259756
 21
141.757538346347701
 31
0.0
  0
LINE
  5
A6
  8
0
  6
CONTINUOUS
 10
269.1419500042259756
 20
141.757538346347701
 30
0.0
 11
269.1419500042259756
 21
127.7580783463477019
 31
0.0
  0
LINE
  5
A7
  8
0
  6
CONTINUOUS
 10
269.1419500042259756
 20
127.7580783463477019
 30
0.0
 11
255.1429500042260088
 21
127.7580783463477019
 31
0.0
  0
LINE
  5
A8
  8
0
  6
CONTINUOUS
 10
255.1429500042260088
 20
127.7580783463477019
 30
0.0
 11
255.1429500042260088
 21
141.757538346347701
 31
0.0
  0
LINE
  5
A9
  8
0
  6
CONTINUOUS
 10
236.0929500042259974
 20
141.757538346347701
 30
0.0
 11
250.0919500042261063
 21
141.757538346347701
 31
0.0
  0
LINE
  5
AA
  8
0
  6
CONTINUOUS
 10
250.0919500042261063
 20
141.757538346347701
 30
0.0
 11
250.0919500042261063
 21
127.7580783463477019
 31
0.0
  0
LINE
  5
AB
  8
0
  6
CONTINUOUS
 10
250.0919500042261063
 20
127.7580783463477019
 30
0.0
 11
236.0929500042259974
 21
127.7580783463477019
 31
0.0
  0
LINE
  5
AC
  8
0
  6
CONTINUOUS
 10
236.0929500042259974
 20
127.7580783463477019
 30
0.0
 11
236.0929500042259974
 21
141.757538346347701
 31
0.0
  0
LINE
  5
AD
  8
0
  6
CONTINUOUS
 10
217.042950004225986
 20
141.757538346347701
 30
0.0
 11
231.0419500042260097
 21
141.757538346347701
 31
0.0
  0
LINE
  5
AE
  8
0
  6
CONTINUOUS
 10
231.0419500042260097
 20
141.757538346347701
 30
0.0
 11
231.0419500042260097
 21
127.7580783463477019
 31
0.0
  0
LINE
  5
AF
  8
0
  6
CONTINUOUS
 10
231.0419500042260097
 20
127.7580783463477019
 30
0.0
 11
217.042950004225986
 21
127.7580783463477019
 31
0.0
  0
LINE
  5
B0
  8
0
  6
CONTINUOUS
 10
217.042950004225986
 20
127.7580783463477019
 30
0.0
 11
217.042950004225986
 21
141.757538346347701
 31
0.0
  0
LINE
  5
B1
  8
0
  6
CONTINUOUS
 10
197.9929500042260031
 20
141.757538346347701
 30
0.0
 11
211.9919500042259983
 21
141.757538346347701
 31
0.0
  0
LINE
  5
B2
  8
0
  6
CONTINUOUS
 10
211.9919500042259983
 20
141.757538346347701
 30
0.0
 11
211.9919500042259983
 21
127.7580783463477019
 31
0.0
  0
LINE
  5
B3
  8
0
  6
CONTINUOUS
 10
211.9919500042259983
 20
127.7580783463477019
 30
0.0
 11
197.9929500042260031
 21
127.7580783463477019
 31
0.0
  0
LINE
  5
B4
  8
0
  6
CONTINUOUS
 10
197.9929500042260031
 20
127.7580783463477019
 30
0.0
 11
197.9929500042260031
 21
141.757538346347701
 31
0.0
  0
LINE
  5
B5
  8
0
  6
CONTINUOUS
 10
57.4989500042260389
 20
141.757538346347701
 30
0.0
 11
71.4982500042260369
 21
141.757538346347701
 31
0.0
  0
LINE
  5
B6
  8
0
  6
CONTINUOUS
 10
71.4982500042260369
 20
141.757538346347701
 30
0.0
 11
71.4982500042260369
 21
127.7580783463477019
 31
0.0
  0
LINE
  5
B7
  8
0
  6
CONTINUOUS
 10
71.4982500042260369
 20
127.7580783463477019
 30
0.0
 11
57.4989500042260389
 21
127.7580783463477019
 31
0.0
  0
LINE
  5
B8
  8
0
  6
CONTINUOUS
 10
57.4989500042260389
 20
127.7580783463477019
 30
0.0
 11
57.4989500042260389
 21
141.757538346347701
 31
0.0
  0
LINE
  5
B9
  8
0
  6
CONTINUOUS
 10
33.6849500042260317
 20
141.757538346347701
 30
0.0
 11
47.6857500042260298
 21
141.757538346347701
 31
0.0
  0
LINE
  5
BA
  8
0
  6
CONTINUOUS
 10
47.6857500042260298
 20
141.757538346347701
 30
0.0
 11
47.6857500042260298
 21
127.7580783463477019
 31
0.0
  0
LINE
  5
BB
  8
0
  6
CONTINUOUS
 10
47.6857500042260298
 20
127.7580783463477019
 30
0.0
 11
33.6849500042260317
 21
127.7580783463477019
 31
0.0
  0
LINE
  5
BC
  8
0
  6
CONTINUOUS
 10
33.6849500042260317
 20
127.7580783463477019
 30
0.0
 11
33.6849500042260317
 21
141.757538346347701
 31
0.0
  0
LINE
  5
BD
  8
0
  6
CONTINUOUS
 10
9.8738600042260352
 20
141.757538346347701
 30
0.0
 11
23.8733500042260296
 21
141.757538346347701
 31
0.0
  0
LINE
  5
BE
  8
0
  6
CONTINUOUS
 10
23.8733500042260296
 20
141.757538346347701
 30
0.0
 11
23.8733500042260296
 21
127.7580783463477019
 31
0.0
  0
LINE
  5
BF
  8
0
  6
CONTINUOUS
 10
23.8733500042260296
 20
127.7580783463477019
 30
0.0
 11
9.8738600042260352
 21
127.7580783463477019
 31
0.0
  0
LINE
  5
C0
  8
0
  6
CONTINUOUS
 10
9.8738600042260352
 20
127.7580783463477019
 30
0.0
 11
9.8738600042260352
 21
141.757538346347701
 31
0.0
  0
LINE
  5
C1
  8
0
  6
CONTINUOUS
 10
293.2429500042259747
 20
160.8074383463477091
 30
0.0
 11
307.2419500042259983
 21
160.8074383463477091
 31
0.0
  0
LINE
  5
C2
  8
0
  6
CONTINUOUS
 10
307.2419500042259983
 20
160.8074383463477091
 30
0.0
 11
307.2419500042259983
 21
146.8080383463477006
 31
0.0
  0
LINE
  5
C3
  8
0
  6
CONTINUOUS
 10
307.2419500042259983
 20
146.8080383463477006
 30
0.0
 11
293.2429500042259747
 21
146.8080383463477006
 31
0.0
  0
LINE
  5
C4
  8
0
  6
CONTINUOUS
 10
293.2429500042259747
 20
146.8080383463477006
 30
0.0
 11
293.2429500042259747
 21
160.8074383463477091
 31
0.0
  0
LINE
  5
C5
  8
0
  6
CONTINUOUS
 10
274.1929500042260202
 20
160.8074383463477091
 30
0.0
 11
288.191950004225987
 21
160.8074383463477091
 31
0.0
  0
LINE
  5
C6
  8
0
  6
CONTINUOUS
 10
288.191950004225987
 20
160.8074383463477091
 30
0.0
 11
288.191950004225987
 21
146.8080383463477006
 31
0.0
  0
LINE
  5
C7
  8
0
  6
CONTINUOUS
 10
288.191950004225987
 20
146.8080383463477006
 30
0.0
 11
274.1929500042260202
 21
146.8080383463477006
 31
0.0
  0
LINE
  5
C8
  8
0
  6
CONTINUOUS
 10
274.1929500042260202
 20
146.8080383463477006
 30
0.0
 11
274.1929500042260202
 21
160.8074383463477091
 31
0.0
  0
LINE
  5
C9
  8
0
  6
CONTINUOUS
 10
247.9989500042260033
 20
160.8074383463477091
 30
0.0
 11
261.997950004226027
 21
160.8074383463477091
 31
0.0
  0
LINE
  5
CA
  8
0
  6
CONTINUOUS
 10
261.997950004226027
 20
160.8074383463477091
 30
0.0
 11
261.997950004226027
 21
146.8080383463477006
 31
0.0
  0
LINE
  5
CB
  8
0
  6
CONTINUOUS
 10
261.997950004226027
 20
146.8080383463477006
 30
0.0
 11
247.9989500042260033
 21
146.8080383463477006
 31
0.0
  0
LINE
  5
CC
  8
0
  6
CONTINUOUS
 10
247.9989500042260033
 20
146.8080383463477006
 30
0.0
 11
247.9989500042260033
 21
160.8074383463477091
 31
0.0
  0
LINE
  5
CD
  8
0
  6
CONTINUOUS
 10
221.8049500042261002
 20
160.8074383463477091
 30
0.0
 11
235.8049500042259865
 21
160.8074383463477091
 31
0.0
  0
LINE
  5
CE
  8
0
  6
CONTINUOUS
 10
235.8049500042259865
 20
160.8074383463477091
 30
0.0
 11
235.8049500042259865
 21
146.8080383463477006
 31
0.0
  0
LINE
  5
CF
  8
0
  6
CONTINUOUS
 10
235.8049500042259865
 20
146.8080383463477006
 30
0.0
 11
221.8049500042261002
 21
146.8080383463477006
 31
0.0
  0
LINE
  5
D0
  8
0
  6
CONTINUOUS
 10
221.8049500042261002
 20
146.8080383463477006
 30
0.0
 11
221.8049500042261002
 21
160.8074383463477091
 31
0.0
  0
LINE
  5
D1
  8
0
  6
CONTINUOUS
 10
202.7549500042260036
 20
160.8074383463477091
 30
0.0
 11
216.7549500042260036
 21
160.8074383463477091
 31
0.0
  0
LINE
  5
D2
  8
0
  6
CONTINUOUS
 10
216.7549500042260036
 20
160.8074383463477091
 30
0.0
 11
216.7549500042260036
 21
146.8080383463477006
 31
0.0
  0
LINE
  5
D3
  8
0
  6
CONTINUOUS
 10
216.7549500042260036
 20
146.8080383463477006
 30
0.0
 11
202.7549500042260036
 21
146.8080383463477006
 31
0.0
  0
LINE
  5
D4
  8
0
  6
CONTINUOUS
 10
202.7549500042260036
 20
146.8080383463477006
 30
0.0
 11
202.7549500042260036
 21
160.8074383463477091
 31
0.0
  0
LINE
  5
D5
  8
0
  6
CONTINUOUS
 10
183.7049500042259922
 20
160.8074383463477091
 30
0.0
 11
197.7049500042259922
 21
160.8074383463477091
 31
0.0
  0
LINE
  5
D6
  8
0
  6
CONTINUOUS
 10
197.7049500042259922
 20
160.8074383463477091
 30
0.0
 11
197.7049500042259922
 21
146.8080383463477006
 31
0.0
  0
LINE
  5
D7
  8
0
  6
CONTINUOUS
 10
197.7049500042259922
 20
146.8080383463477006
 30
0.0
 11
183.7049500042259922
 21
146.8080383463477006
 31
0.0
  0
LINE
  5
D8
  8
0
  6
CONTINUOUS
 10
183.7049500042259922
 20
146.8080383463477006
 30
0.0
 11
183.7049500042259922
 21
160.8074383463477091
 31
0.0
  0
LINE
  5
D9
  8
0
  6
CONTINUOUS
 10
164.6549500042260092
 20
160.8074383463477091
 30
0.0
 11
178.6549500042260092
 21
160.8074383463477091
 31
0.0
  0
LINE
  5
DA
  8
0
  6
CONTINUOUS
 10
178.6549500042260092
 20
160.8074383463477091
 30
0.0
 11
178.6549500042260092
 21
146.8080383463477006
 31
0.0
  0
LINE
  5
DB
  8
0
  6
CONTINUOUS
 10
178.6549500042260092
 20
146.8080383463477006
 30
0.0
 11
164.6549500042260092
 21
146.8080383463477006
 31
0.0
  0
LINE
  5
DC
  8
0
  6
CONTINUOUS
 10
164.6549500042260092
 20
146.8080383463477006
 30
0.0
 11
164.6549500042260092
 21
160.8074383463477091
 31
0.0
  0
LINE
  5
DD
  8
0
  6
CONTINUOUS
 10
145.6049500042259979
 20
160.8074383463477091
 30
0.0
 11
159.6049500042259979
 21
160.8074383463477091
 31
0.0
  0
LINE
  5
DE
  8
0
  6
CONTINUOUS
 10
159.6049500042259979
 20
160.8074383463477091
 30
0.0
 11
159.6049500042259979
 21
146.8080383463477006
 31
0.0
  0
LINE
  5
DF
  8
0
  6
CONTINUOUS
 10
159.6049500042259979
 20
146.8080383463477006
 30
0.0
 11
145.6049500042259979
 21
146.8080383463477006
 31
0.0
  0
LINE
  5
E0
  8
0
  6
CONTINUOUS
 10
145.6049500042259979
 20
146.8080383463477006
 30
0.0
 11
145.6049500042259979
 21
160.8074383463477091
 31
0.0
  0
LINE
  5
E1
  8
0
  6
CONTINUOUS
 10
126.5549500042260007
 20
160.8074383463477091
 30
0.0
 11
140.5549500042259865
 21
160.8074383463477091
 31
0.0
  0
LINE
  5
E2
  8
0
  6
CONTINUOUS
 10
140.5549500042259865
 20
160.8074383463477091
 30
0.0
 11
140.5549500042259865
 21
146.8080383463477006
 31
0.0
  0
LINE
  5
E3
  8
0
  6
CONTINUOUS
 10
140.5549500042259865
 20
146.8080383463477006
 30
0.0
 11
126.5549500042260007
 21
146.8080383463477006
 31
0.0
  0
LINE
  5
E4
  8
0
  6
CONTINUOUS
 10
126.5549500042260007
 20
146.8080383463477006
 30
0.0
 11
126.5549500042260007
 21
160.8074383463477091
 31
0.0
  0
LINE
  5
E5
  8
0
  6
CONTINUOUS
 10
107.5049500042260036
 20
160.8074383463477091
 30
0.0
 11
121.5049500042260036
 21
160.8074383463477091
 31
0.0
  0
LINE
  5
E6
  8
0
  6
CONTINUOUS
 10
121.5049500042260036
 20
160.8074383463477091
 30
0.0
 11
121.5049500042260036
 21
146.8080383463477006
 31
0.0
  0
LINE
  5
E7
  8
0
  6
CONTINUOUS
 10
121.5049500042260036
 20
146.8080383463477006
 30
0.0
 11
107.5049500042260036
 21
146.8080383463477006
 31
0.0
  0
LINE
  5
E8
  8
0
  6
CONTINUOUS
 10
107.5049500042260036
 20
146.8080383463477006
 30
0.0
 11
107.5049500042260036
 21
160.8074383463477091
 31
0.0
  0
LINE
  5
E9
  8
0
  6
CONTINUOUS
 10
88.4551500042260272
 20
160.8074383463477091
 30
0.0
 11
102.454450004226004
 21
160.8074383463477091
 31
0.0
  0
LINE
  5
EA
  8
0
  6
CONTINUOUS
 10
102.454450004226004
 20
160.8074383463477091
 30
0.0
 11
102.454450004226004
 21
146.8080383463477006
 31
0.0
  0
LINE
  5
EB
  8
0
  6
CONTINUOUS
 10
102.454450004226004
 20
146.8080383463477006
 30
0.0
 11
88.4551500042260272
 21
146.8080383463477006
 31
0.0
  0
LINE
  5
EC
  8
0
  6
CONTINUOUS
 10
88.4551500042260272
 20
146.8080383463477006
 30
0.0
 11
88.4551500042260272
 21
160.8074383463477091
 31
0.0
  0
LINE
  5
ED
  8
0
  6
CONTINUOUS
 10
69.4051500042260443
 20
160.8074383463477091
 30
0.0
 11
83.4044500042260353
 21
160.8074383463477091
 31
0.0
  0
LINE
  5
EE
  8
0
  6
CONTINUOUS
 10
83.4044500042260353
 20
160.8074383463477091
 30
0.0
 11
83.4044500042260353
 21
146.8080383463477006
 31
0.0
  0
LINE
  5
EF
  8
0
  6
CONTINUOUS
 10
83.4044500042260353
 20
146.8080383463477006
 30
0.0
 11
69.4051500042260443
 21
146.8080383463477006
 31
0.0
  0
LINE
  5
F0
  8
0
  6
CONTINUOUS
 10
69.4051500042260443
 20
146.8080383463477006
 30
0.0
 11
69.4051500042260443
 21
160.8074383463477091
 31
0.0
  0
LINE
  5
F1
  8
0
  6
CONTINUOUS
 10
50.3551500042260329
 20
160.8074383463477091
 30
0.0
 11
64.3544500042260239
 21
160.8074383463477091
 31
0.0
  0
LINE
  5
F2
  8
0
  6
CONTINUOUS
 10
64.3544500042260239
 20
160.8074383463477091
 30
0.0
 11
64.3544500042260239
 21
146.8080383463477006
 31
0.0
  0
LINE
  5
F3
  8
0
  6
CONTINUOUS
 10
64.3544500042260239
 20
146.8080383463477006
 30
0.0
 11
50.3551500042260329
 21
146.8080383463477006
 31
0.0
  0
LINE
  5
F4
  8
0
  6
CONTINUOUS
 10
50.3551500042260329
 20
146.8080383463477006
 30
0.0
 11
50.3551500042260329
 21
160.8074383463477091
 31
0.0
  0
LINE
  5
F5
  8
0
  6
CONTINUOUS
 10
31.3051500042260393
 20
160.8074383463477091
 30
0.0
 11
45.3044500042260267
 21
160.8074383463477091
 31
0.0
  0
LINE
  5
F6
  8
0
  6
CONTINUOUS
 10
45.3044500042260267
 20
160.8074383463477091
 30
0.0
 11
45.3044500042260267
 21
146.8080383463477006
 31
0.0
  0
LINE
  5
F7
  8
0
  6
CONTINUOUS
 10
45.3044500042260267
 20
146.8080383463477006
 30
0.0
 11
31.3051500042260393
 21
146.8080383463477006
 31
0.0
  0
LINE
  5
F8
  8
0
  6
CONTINUOUS
 10
31.3051500042260393
 20
146.8080383463477006
 30
0.0
 11
31.3051500042260393
 21
160.8074383463477091
 31
0.0
  0
LINE
  5
F9
  8
0
  6
CONTINUOUS
 10
9.8738600042260352
 20
160.8074383463477091
 30
0.0
 11
23.8733500042260296
 21
160.8074383463477091
 31
0.0
  0
LINE
  5
FA
  8
0
  6
CONTINUOUS
 10
23.8733500042260296
 20
160.8074383463477091
 30
0.0
 11
23.8733500042260296
 21
146.8080383463477006
 31
0.0
  0
LINE
  5
FB
  8
0
  6
CONTINUOUS
 10
23.8733500042260296
 20
146.8080383463477006
 30
0.0
 11
9.8738600042260352
 21
146.8080383463477006
 31
0.0
  0
LINE
  5
FC
  8
0
  6
CONTINUOUS
 10
9.8738600042260352
 20
146.8080383463477006
 30
0.0
 11
9.8738600042260352
 21
160.8074383463477091
 31
0.0
  0
LINE
  5
FD
  8
0
  6
CONTINUOUS
 10
293.2429500042259747
 20
179.8575383463476953
 30
0.0
 11
307.2419500042259983
 21
179.8575383463476953
 31
0.0
  0
LINE
  5
FE
  8
0
  6
CONTINUOUS
 10
307.2419500042259983
 20
179.8575383463476953
 30
0.0
 11
307.2419500042259983
 21
165.8582383463476901
 31
0.0
  0
LINE
  5
FF
  8
0
  6
CONTINUOUS
 10
307.2419500042259983
 20
165.8582383463476901
 30
0.0
 11
293.2429500042259747
 21
165.8582383463476901
 31
0.0
  0
LINE
  5
100
  8
0
  6
CONTINUOUS
 10
293.2429500042259747
 20
165.8582383463476901
 30
0.0
 11
293.2429500042259747
 21
179.8575383463476953
 31
0.0
  0
LINE
  5
101
  8
0
  6
CONTINUOUS
 10
250.3799500042260036
 20
179.8575383463476953
 30
0.0
 11
264.3799500042259751
 21
179.8575383463476953
 31
0.0
  0
LINE
  5
102
  8
0
  6
CONTINUOUS
 10
264.3799500042259751
 20
179.8575383463476953
 30
0.0
 11
264.3799500042259751
 21
165.8582383463476901
 31
0.0
  0
LINE
  5
103
  8
0
  6
CONTINUOUS
 10
264.3799500042259751
 20
165.8582383463476901
 30
0.0
 11
250.3799500042260036
 21
165.8582383463476901
 31
0.0
  0
LINE
  5
104
  8
0
  6
CONTINUOUS
 10
250.3799500042260036
 20
165.8582383463476901
 30
0.0
 11
250.3799500042260036
 21
179.8575383463476953
 31
0.0
  0
LINE
  5
105
  8
0
  6
CONTINUOUS
 10
231.3299500042259922
 20
179.8575383463476953
 30
0.0
 11
245.3299500042259922
 21
179.8575383463476953
 31
0.0
  0
LINE
  5
106
  8
0
  6
CONTINUOUS
 10
245.3299500042259922
 20
179.8575383463476953
 30
0.0
 11
245.3299500042259922
 21
165.8582383463476901
 31
0.0
  0
LINE
  5
107
  8
0
  6
CONTINUOUS
 10
245.3299500042259922
 20
165.8582383463476901
 30
0.0
 11
231.3299500042259922
 21
165.8582383463476901
 31
0.0
  0
LINE
  5
108
  8
0
  6
CONTINUOUS
 10
231.3299500042259922
 20
165.8582383463476901
 30
0.0
 11
231.3299500042259922
 21
179.8575383463476953
 31
0.0
  0
LINE
  5
109
  8
0
  6
CONTINUOUS
 10
212.2799500042260945
 20
179.8575383463476953
 30
0.0
 11
226.2799500042260092
 21
179.8575383463476953
 31
0.0
  0
LINE
  5
10A
  8
0
  6
CONTINUOUS
 10
226.2799500042260092
 20
179.8575383463476953
 30
0.0
 11
226.2799500042260092
 21
165.8582383463476901
 31
0.0
  0
LINE
  5
10B
  8
0
  6
CONTINUOUS
 10
226.2799500042260092
 20
165.8582383463476901
 30
0.0
 11
212.2799500042260945
 21
165.8582383463476901
 31
0.0
  0
LINE
  5
10C
  8
0
  6
CONTINUOUS
 10
212.2799500042260945
 20
165.8582383463476901
 30
0.0
 11
212.2799500042260945
 21
179.8575383463476953
 31
0.0
  0
LINE
  5
10D
  8
0
  6
CONTINUOUS
 10
193.2299500042259979
 20
179.8575383463476953
 30
0.0
 11
207.2299500042259979
 21
179.8575383463476953
 31
0.0
  0
LINE
  5
10E
  8
0
  6
CONTINUOUS
 10
207.2299500042259979
 20
179.8575383463476953
 30
0.0
 11
207.2299500042259979
 21
165.8582383463476901
 31
0.0
  0
LINE
  5
10F
  8
0
  6
CONTINUOUS
 10
207.2299500042259979
 20
165.8582383463476901
 30
0.0
 11
193.2299500042259979
 21
165.8582383463476901
 31
0.0
  0
LINE
  5
110
  8
0
  6
CONTINUOUS
 10
193.2299500042259979
 20
165.8582383463476901
 30
0.0
 11
193.2299500042259979
 21
179.8575383463476953
 31
0.0
  0
LINE
  5
111
  8
0
  6
CONTINUOUS
 10
174.1799500042259865
 20
179.8575383463476953
 30
0.0
 11
188.1799500042259865
 21
179.8575383463476953
 31
0.0
  0
LINE
  5
112
  8
0
  6
CONTINUOUS
 10
188.1799500042259865
 20
179.8575383463476953
 30
0.0
 11
188.1799500042259865
 21
165.8582383463476901
 31
0.0
  0
LINE
  5
113
  8
0
  6
CONTINUOUS
 10
188.1799500042259865
 20
165.8582383463476901
 30
0.0
 11
174.1799500042259865
 21
165.8582383463476901
 31
0.0
  0
LINE
  5
114
  8
0
  6
CONTINUOUS
 10
174.1799500042259865
 20
165.8582383463476901
 30
0.0
 11
174.1799500042259865
 21
179.8575383463476953
 31
0.0
  0
LINE
  5
115
  8
0
  6
CONTINUOUS
 10
155.1299500042260036
 20
179.8575383463476953
 30
0.0
 11
169.1299500042260036
 21
179.8575383463476953
 31
0.0
  0
LINE
  5
116
  8
0
  6
CONTINUOUS
 10
169.1299500042260036
 20
179.8575383463476953
 30
0.0
 11
169.1299500042260036
 21
165.8582383463476901
 31
0.0
  0
LINE
  5
117
  8
0
  6
CONTINUOUS
 10
169.1299500042260036
 20
165.8582383463476901
 30
0.0
 11
155.1299500042260036
 21
165.8582383463476901
 31
0.0
  0
LINE
  5
118
  8
0
  6
CONTINUOUS
 10
155.1299500042260036
 20
165.8582383463476901
 30
0.0
 11
155.1299500042260036
 21
179.8575383463476953
 31
0.0
  0
LINE
  5
119
  8
0
  6
CONTINUOUS
 10
136.0799500042259922
 20
179.8575383463476953
 30
0.0
 11
150.0799500042259922
 21
179.8575383463476953
 31
0.0
  0
LINE
  5
11A
  8
0
  6
CONTINUOUS
 10
150.0799500042259922
 20
179.8575383463476953
 30
0.0
 11
150.0799500042259922
 21
165.8582383463476901
 31
0.0
  0
LINE
  5
11B
  8
0
  6
CONTINUOUS
 10
150.0799500042259922
 20
165.8582383463476901
 30
0.0
 11
136.0799500042259922
 21
165.8582383463476901
 31
0.0
  0
LINE
  5
11C
  8
0
  6
CONTINUOUS
 10
136.0799500042259922
 20
165.8582383463476901
 30
0.0
 11
136.0799500042259922
 21
179.8575383463476953
 31
0.0
  0
LINE
  5
11D
  8
0
  6
CONTINUOUS
 10
117.029950004225995
 20
179.8575383463476953
 30
0.0
 11
131.0299500042260092
 21
179.8575383463476953
 31
0.0
  0
LINE
  5
11E
  8
0
  6
CONTINUOUS
 10
131.0299500042260092
 20
179.8575383463476953
 30
0.0
 11
131.0299500042260092
 21
165.8582383463476901
 31
0.0
  0
LINE
  5
11F
  8
0
  6
CONTINUOUS
 10
131.0299500042260092
 20
165.8582383463476901
 30
0.0
 11
117.029950004225995
 21
165.8582383463476901
 31
0.0
  0
LINE
  5
120
  8
0
  6
CONTINUOUS
 10
117.029950004225995
 20
165.8582383463476901
 30
0.0
 11
117.029950004225995
 21
179.8575383463476953
 31
0.0
  0
LINE
  5
121
  8
0
  6
CONTINUOUS
 10
97.9801500042260329
 20
179.8575383463476953
 30
0.0
 11
111.9799500042259979
 21
179.8575383463476953
 31
0.0
  0
LINE
  5
122
  8
0
  6
CONTINUOUS
 10
111.9799500042259979
 20
179.8575383463476953
 30
0.0
 11
111.9799500042259979
 21
165.8582383463476901
 31
0.0
  0
LINE
  5
123
  8
0
  6
CONTINUOUS
 10
111.9799500042259979
 20
165.8582383463476901
 30
0.0
 11
97.9801500042260329
 21
165.8582383463476901
 31
0.0
  0
LINE
  5
124
  8
0
  6
CONTINUOUS
 10
97.9801500042260329
 20
165.8582383463476901
 30
0.0
 11
97.9801500042260329
 21
179.8575383463476953
 31
0.0
  0
LINE
  5
125
  8
0
  6
CONTINUOUS
 10
78.9301500042260216
 20
179.8575383463476953
 30
0.0
 11
92.9294500042260267
 21
179.8575383463476953
 31
0.0
  0
LINE
  5
126
  8
0
  6
CONTINUOUS
 10
92.9294500042260267
 20
179.8575383463476953
 30
0.0
 11
92.9294500042260267
 21
165.8582383463476901
 31
0.0
  0
LINE
  5
127
  8
0
  6
CONTINUOUS
 10
92.9294500042260267
 20
165.8582383463476901
 30
0.0
 11
78.9301500042260216
 21
165.8582383463476901
 31
0.0
  0
LINE
  5
128
  8
0
  6
CONTINUOUS
 10
78.9301500042260216
 20
165.8582383463476901
 30
0.0
 11
78.9301500042260216
 21
179.8575383463476953
 31
0.0
  0
LINE
  5
129
  8
0
  6
CONTINUOUS
 10
59.8801500042260315
 20
179.8575383463476953
 30
0.0
 11
73.8794500042260438
 21
179.8575383463476953
 31
0.0
  0
LINE
  5
12A
  8
0
  6
CONTINUOUS
 10
73.8794500042260438
 20
179.8575383463476953
 30
0.0
 11
73.8794500042260438
 21
165.8582383463476901
 31
0.0
  0
LINE
  5
12B
  8
0
  6
CONTINUOUS
 10
73.8794500042260438
 20
165.8582383463476901
 30
0.0
 11
59.8801500042260315
 21
165.8582383463476901
 31
0.0
  0
LINE
  5
12C
  8
0
  6
CONTINUOUS
 10
59.8801500042260315
 20
165.8582383463476901
 30
0.0
 11
59.8801500042260315
 21
179.8575383463476953
 31
0.0
  0
LINE
  5
12D
  8
0
  6
CONTINUOUS
 10
40.8301500042260272
 20
179.8575383463476953
 30
0.0
 11
54.8294500042260324
 21
179.8575383463476953
 31
0.0
  0
LINE
  5
12E
  8
0
  6
CONTINUOUS
 10
54.8294500042260324
 20
179.8575383463476953
 30
0.0
 11
54.8294500042260324
 21
165.8582383463476901
 31
0.0
  0
LINE
  5
12F
  8
0
  6
CONTINUOUS
 10
54.8294500042260324
 20
165.8582383463476901
 30
0.0
 11
40.8301500042260272
 21
165.8582383463476901
 31
0.0
  0
LINE
  5
130
  8
0
  6
CONTINUOUS
 10
40.8301500042260272
 20
165.8582383463476901
 30
0.0
 11
40.8301500042260272
 21
179.8575383463476953
 31
0.0
  0
LINE
  5
131
  8
0
  6
CONTINUOUS
 10
14.6349800042260298
 20
179.8575383463476953
 30
0.0
 11
28.6358500042260289
 21
179.8575383463476953
 31
0.0
  0
LINE
  5
132
  8
0
  6
CONTINUOUS
 10
28.6358500042260289
 20
179.8575383463476953
 30
0.0
 11
28.6358500042260289
 21
165.8582383463476901
 31
0.0
  0
LINE
  5
133
  8
0
  6
CONTINUOUS
 10
28.6358500042260289
 20
165.8582383463476901
 30
0.0
 11
14.6349800042260298
 21
165.8582383463476901
 31
0.0
  0
LINE
  5
134
  8
0
  6
CONTINUOUS
 10
14.6349800042260298
 20
165.8582383463476901
 30
0.0
 11
14.6349800042260298
 21
179.8575383463476953
 31
0.0
  0
LINE
  5
135
  8
0
  6
CONTINUOUS
 10
278.309950004225982
 20
198.4831383463476868
 30
0.0
 11
278.309950004225982
 21
197.65763834634771
 31
0.0
  0
LINE
  5
136
  8
0
  6
CONTINUOUS
 10
278.309950004225982
 20
197.65763834634771
 30
0.0
 11
272.0399500042260001
 21
197.65763834634771
 31
0.0
  0
LINE
  5
137
  8
0
  6
CONTINUOUS
 10
272.0399500042260001
 20
197.65763834634771
 30
0.0
 11
272.0399500042260001
 21
195.9325383463477124
 31
0.0
  0
LINE
  5
138
  8
0
  6
CONTINUOUS
 10
272.0399500042260001
 20
195.9325383463477124
 30
0.0
 11
270.8399500042260115
 21
195.9325383463477124
 31
0.0
  0
LINE
  5
139
  8
0
  6
CONTINUOUS
 10
270.8399500042260115
 20
195.9325383463477124
 30
0.0
 11
270.8399500042260115
 21
192.6333383463476991
 31
0.0
  0
LINE
  5
13A
  8
0
  6
CONTINUOUS
 10
270.8399500042260115
 20
192.6333383463476991
 30
0.0
 11
272.0399500042260001
 21
192.6333383463476991
 31
0.0
  0
LINE
  5
13B
  8
0
  6
CONTINUOUS
 10
272.0399500042260001
 20
192.6333383463476991
 30
0.0
 11
272.0399500042260001
 21
190.9079383463476915
 31
0.0
  0
LINE
  5
13C
  8
0
  6
CONTINUOUS
 10
272.0399500042260001
 20
190.9079383463476915
 30
0.0
 11
276.5099500042260274
 21
190.9079383463476915
 31
0.0
  0
LINE
  5
13D
  8
0
  6
CONTINUOUS
 10
276.5099500042260274
 20
190.9079383463476915
 30
0.0
 11
276.5099500042260274
 21
189.382538346347701
 31
0.0
  0
LINE
  5
13E
  8
0
  6
CONTINUOUS
 10
276.5099500042260274
 20
189.382538346347701
 30
0.0
 11
271.809950004225982
 21
189.382538346347701
 31
0.0
  0
LINE
  5
13F
  8
0
  6
CONTINUOUS
 10
271.809950004225982
 20
189.382538346347701
 30
0.0
 11
271.809950004225982
 21
175.3832383463476958
 31
0.0
  0
LINE
  5
140
  8
0
  6
CONTINUOUS
 10
271.809950004225982
 20
175.3832383463476958
 30
0.0
 11
276.5099500042260274
 21
175.3832383463476958
 31
0.0
  0
LINE
  5
141
  8
0
  6
CONTINUOUS
 10
276.5099500042260274
 20
175.3832383463476958
 30
0.0
 11
276.5099500042260274
 21
173.857438346347692
 31
0.0
  0
LINE
  5
142
  8
0
  6
CONTINUOUS
 10
276.5099500042260274
 20
173.857438346347692
 30
0.0
 11
272.0399500042260001
 21
173.857438346347692
 31
0.0
  0
LINE
  5
143
  8
0
  6
CONTINUOUS
 10
272.0399500042260001
 20
173.857438346347692
 30
0.0
 11
272.0399500042260001
 21
172.1323383463476944
 31
0.0
  0
LINE
  5
144
  8
0
  6
CONTINUOUS
 10
272.0399500042260001
 20
172.1323383463476944
 30
0.0
 11
270.8399500042260115
 21
172.1323383463476944
 31
0.0
  0
LINE
  5
145
  8
0
  6
CONTINUOUS
 10
270.8399500042260115
 20
172.1323383463476944
 30
0.0
 11
270.8399500042260115
 21
168.8331383463477096
 31
0.0
  0
LINE
  5
146
  8
0
  6
CONTINUOUS
 10
270.8399500042260115
 20
168.8331383463477096
 30
0.0
 11
272.0399500042260001
 21
168.8331383463477096
 31
0.0
  0
LINE
  5
147
  8
0
  6
CONTINUOUS
 10
272.0399500042260001
 20
168.8331383463477096
 30
0.0
 11
272.0399500042260001
 21
167.1081383463476868
 31
0.0
  0
LINE
  5
148
  8
0
  6
CONTINUOUS
 10
272.0399500042260001
 20
167.1081383463476868
 30
0.0
 11
278.309950004225982
 21
167.1081383463476868
 31
0.0
  0
LINE
  5
149
  8
0
  6
CONTINUOUS
 10
278.309950004225982
 20
167.1081383463476868
 30
0.0
 11
278.309950004225982
 21
166.28263834634771
 31
0.0
  0
LINE
  5
14A
  8
0
  6
CONTINUOUS
 10
278.309950004225982
 20
166.28263834634771
 30
0.0
 11
281.1099500042259933
 21
166.28263834634771
 31
0.0
  0
LINE
  5
14B
  8
0
  6
CONTINUOUS
 10
281.1099500042259933
 20
166.28263834634771
 30
0.0
 11
281.1099500042259933
 21
167.1081383463476868
 31
0.0
  0
LINE
  5
14C
  8
0
  6
CONTINUOUS
 10
281.1099500042259933
 20
167.1081383463476868
 30
0.0
 11
284.3399500042260115
 21
167.1081383463476868
 31
0.0
  0
LINE
  5
14D
  8
0
  6
CONTINUOUS
 10
284.3399500042260115
 20
167.1081383463476868
 30
0.0
 11
284.3399500042260115
 21
173.857438346347692
 31
0.0
  0
LINE
  5
14E
  8
0
  6
CONTINUOUS
 10
284.3399500042260115
 20
173.857438346347692
 30
0.0
 11
281.1099500042259933
 21
173.857438346347692
 31
0.0
  0
LINE
  5
14F
  8
0
  6
CONTINUOUS
 10
281.1099500042259933
 20
173.857438346347692
 30
0.0
 11
281.1099500042259933
 21
175.3832383463476958
 31
0.0
  0
LINE
  5
150
  8
0
  6
CONTINUOUS
 10
281.1099500042259933
 20
175.3832383463476958
 30
0.0
 11
285.8109500042260152
 21
175.3832383463476958
 31
0.0
  0
LINE
  5
151
  8
0
  6
CONTINUOUS
 10
285.8109500042260152
 20
175.3832383463476958
 30
0.0
 11
285.8109500042260152
 21
189.382538346347701
 31
0.0
  0
LINE
  5
152
  8
0
  6
CONTINUOUS
 10
285.8109500042260152
 20
189.382538346347701
 30
0.0
 11
281.1099500042259933
 21
189.382538346347701
 31
0.0
  0
LINE
  5
153
  8
0
  6
CONTINUOUS
 10
281.1099500042259933
 20
189.382538346347701
 30
0.0
 11
281.1099500042259933
 21
190.9079383463476915
 31
0.0
  0
LINE
  5
154
  8
0
  6
CONTINUOUS
 10
281.1099500042259933
 20
190.9079383463476915
 30
0.0
 11
284.3399500042260115
 21
190.9079383463476915
 31
0.0
  0
LINE
  5
155
  8
0
  6
CONTINUOUS
 10
284.3399500042260115
 20
190.9079383463476915
 30
0.0
 11
284.3399500042260115
 21
197.65763834634771
 31
0.0
  0
LINE
  5
156
  8
0
  6
CONTINUOUS
 10
284.3399500042260115
 20
197.65763834634771
 30
0.0
 11
281.1099500042259933
 21
197.65763834634771
 31
0.0
  0
LINE
  5
157
  8
0
  6
CONTINUOUS
 10
281.1099500042259933
 20
197.65763834634771
 30
0.0
 11
281.1099500042259933
 21
198.4831383463476868
 31
0.0
  0
LINE
  5
158
  8
0
  6
CONTINUOUS
 10
281.1099500042259933
 20
198.4831383463476868
 30
0.0
 11
278.309950004225982
 21
198.4831383463476868
 31
0.0
  0
LINE
  5
159
  8
0
  6
CONTINUOUS
 10
293.2429500042259747
 20
198.9075383463477067
 30
0.0
 11
307.2419500042259983
 21
198.9075383463477067
 31
0.0
  0
LINE
  5
15A
  8
0
  6
CONTINUOUS
 10
307.2419500042259983
 20
198.9075383463477067
 30
0.0
 11
307.2419500042259983
 21
184.9082383463477015
 31
0.0
  0
LINE
  5
15B
  8
0
  6
CONTINUOUS
 10
307.2419500042259983
 20
184.9082383463477015
 30
0.0
 11
293.2429500042259747
 21
184.9082383463477015
 31
0.0
  0
LINE
  5
15C
  8
0
  6
CONTINUOUS
 10
293.2429500042259747
 20
184.9082383463477015
 30
0.0
 11
293.2429500042259747
 21
198.9075383463477067
 31
0.0
  0
LINE
  5
15D
  8
0
  6
CONTINUOUS
 10
245.6179500042260031
 20
198.9075383463477067
 30
0.0
 11
259.616950004226112
 21
198.9075383463477067
 31
0.0
  0
LINE
  5
15E
  8
0
  6
CONTINUOUS
 10
259.616950004226112
 20
198.9075383463477067
 30
0.0
 11
259.616950004226112
 21
184.9082383463477015
 31
0.0
  0
LINE
  5
15F
  8
0
  6
CONTINUOUS
 10
259.616950004226112
 20
184.9082383463477015
 30
0.0
 11
245.6179500042260031
 21
184.9082383463477015
 31
0.0
  0
LINE
  5
160
  8
0
  6
CONTINUOUS
 10
245.6179500042260031
 20
184.9082383463477015
 30
0.0
 11
245.6179500042260031
 21
198.9075383463477067
 31
0.0
  0
LINE
  5
161
  8
0
  6
CONTINUOUS
 10
226.5679500042259917
 20
198.9075383463477067
 30
0.0
 11
240.566950004225987
 21
198.9075383463477067
 31
0.0
  0
LINE
  5
162
  8
0
  6
CONTINUOUS
 10
240.566950004225987
 20
198.9075383463477067
 30
0.0
 11
240.566950004225987
 21
184.9082383463477015
 31
0.0
  0
LINE
  5
163
  8
0
  6
CONTINUOUS
 10
240.566950004225987
 20
184.9082383463477015
 30
0.0
 11
226.5679500042259917
 21
184.9082383463477015
 31
0.0
  0
LINE
  5
164
  8
0
  6
CONTINUOUS
 10
226.5679500042259917
 20
184.9082383463477015
 30
0.0
 11
226.5679500042259917
 21
198.9075383463477067
 31
0.0
  0
LINE
  5
165
  8
0
  6
CONTINUOUS
 10
207.5179500042260088
 20
198.9075383463477067
 30
0.0
 11
221.516950004226004
 21
198.9075383463477067
 31
0.0
  0
LINE
  5
166
  8
0
  6
CONTINUOUS
 10
221.516950004226004
 20
198.9075383463477067
 30
0.0
 11
221.516950004226004
 21
184.9082383463477015
 31
0.0
  0
LINE
  5
167
  8
0
  6
CONTINUOUS
 10
221.516950004226004
 20
184.9082383463477015
 30
0.0
 11
207.5179500042260088
 21
184.9082383463477015
 31
0.0
  0
LINE
  5
168
  8
0
  6
CONTINUOUS
 10
207.5179500042260088
 20
184.9082383463477015
 30
0.0
 11
207.5179500042260088
 21
198.9075383463477067
 31
0.0
  0
LINE
  5
169
  8
0
  6
CONTINUOUS
 10
188.4679500042259974
 20
198.9075383463477067
 30
0.0
 11
202.4669500042259926
 21
198.9075383463477067
 31
0.0
  0
LINE
  5
16A
  8
0
  6
CONTINUOUS
 10
202.4669500042259926
 20
198.9075383463477067
 30
0.0
 11
202.4669500042259926
 21
184.9082383463477015
 31
0.0
  0
LINE
  5
16B
  8
0
  6
CONTINUOUS
 10
202.4669500042259926
 20
184.9082383463477015
 30
0.0
 11
188.4679500042259974
 21
184.9082383463477015
 31
0.0
  0
LINE
  5
16C
  8
0
  6
CONTINUOUS
 10
188.4679500042259974
 20
184.9082383463477015
 30
0.0
 11
188.4679500042259974
 21
198.9075383463477067
 31
0.0
  0
LINE
  5
16D
  8
0
  6
CONTINUOUS
 10
169.417950004225986
 20
198.9075383463477067
 30
0.0
 11
183.4169500042260097
 21
198.9075383463477067
 31
0.0
  0
LINE
  5
16E
  8
0
  6
CONTINUOUS
 10
183.4169500042260097
 20
198.9075383463477067
 30
0.0
 11
183.4169500042260097
 21
184.9082383463477015
 31
0.0
  0
LINE
  5
16F
  8
0
  6
CONTINUOUS
 10
183.4169500042260097
 20
184.9082383463477015
 30
0.0
 11
169.417950004225986
 21
184.9082383463477015
 31
0.0
  0
LINE
  5
170
  8
0
  6
CONTINUOUS
 10
169.417950004225986
 20
184.9082383463477015
 30
0.0
 11
169.417950004225986
 21
198.9075383463477067
 31
0.0
  0
LINE
  5
171
  8
0
  6
CONTINUOUS
 10
150.3679500042260031
 20
198.9075383463477067
 30
0.0
 11
164.3669500042259983
 21
198.9075383463477067
 31
0.0
  0
LINE
  5
172
  8
0
  6
CONTINUOUS
 10
164.3669500042259983
 20
198.9075383463477067
 30
0.0
 11
164.3669500042259983
 21
184.9082383463477015
 31
0.0
  0
LINE
  5
173
  8
0
  6
CONTINUOUS
 10
164.3669500042259983
 20
184.9082383463477015
 30
0.0
 11
150.3679500042260031
 21
184.9082383463477015
 31
0.0
  0
LINE
  5
174
  8
0
  6
CONTINUOUS
 10
150.3679500042260031
 20
184.9082383463477015
 30
0.0
 11
150.3679500042260031
 21
198.9075383463477067
 31
0.0
  0
LINE
  5
175
  8
0
  6
CONTINUOUS
 10
131.3179500042259917
 20
198.9075383463477067
 30
0.0
 11
145.316950004225987
 21
198.9075383463477067
 31
0.0
  0
LINE
  5
176
  8
0
  6
CONTINUOUS
 10
145.316950004225987
 20
198.9075383463477067
 30
0.0
 11
145.316950004225987
 21
184.9082383463477015
 31
0.0
  0
LINE
  5
177
  8
0
  6
CONTINUOUS
 10
145.316950004225987
 20
184.9082383463477015
 30
0.0
 11
131.3179500042259917
 21
184.9082383463477015
 31
0.0
  0
LINE
  5
178
  8
0
  6
CONTINUOUS
 10
131.3179500042259917
 20
184.9082383463477015
 30
0.0
 11
131.3179500042259917
 21
198.9075383463477067
 31
0.0
  0
LINE
  5
179
  8
0
  6
CONTINUOUS
 10
112.2679500042259946
 20
198.9075383463477067
 30
0.0
 11
126.266950004226004
 21
198.9075383463477067
 31
0.0
  0
LINE
  5
17A
  8
0
  6
CONTINUOUS
 10
126.266950004226004
 20
198.9075383463477067
 30
0.0
 11
126.266950004226004
 21
184.9082383463477015
 31
0.0
  0
LINE
  5
17B
  8
0
  6
CONTINUOUS
 10
126.266950004226004
 20
184.9082383463477015
 30
0.0
 11
112.2679500042259946
 21
184.9082383463477015
 31
0.0
  0
LINE
  5
17C
  8
0
  6
CONTINUOUS
 10
112.2679500042259946
 20
184.9082383463477015
 30
0.0
 11
112.2679500042259946
 21
198.9075383463477067
 31
0.0
  0
LINE
  5
17D
  8
0
  6
CONTINUOUS
 10
93.2176500042260443
 20
198.9075383463477067
 30
0.0
 11
107.2169500042260069
 21
198.9075383463477067
 31
0.0
  0
LINE
  5
17E
  8
0
  6
CONTINUOUS
 10
107.2169500042260069
 20
198.9075383463477067
 30
0.0
 11
107.2169500042260069
 21
184.9082383463477015
 31
0.0
  0
LINE
  5
17F
  8
0
  6
CONTINUOUS
 10
107.2169500042260069
 20
184.9082383463477015
 30
0.0
 11
93.2176500042260443
 21
184.9082383463477015
 31
0.0
  0
LINE
  5
180
  8
0
  6
CONTINUOUS
 10
93.2176500042260443
 20
184.9082383463477015
 30
0.0
 11
93.2176500042260443
 21
198.9075383463477067
 31
0.0
  0
LINE
  5
181
  8
0
  6
CONTINUOUS
 10
74.1676500042260329
 20
198.9075383463477067
 30
0.0
 11
88.1669500042260239
 21
198.9075383463477067
 31
0.0
  0
LINE
  5
182
  8
0
  6
CONTINUOUS
 10
88.1669500042260239
 20
198.9075383463477067
 30
0.0
 11
88.1669500042260239
 21
184.9082383463477015
 31
0.0
  0
LINE
  5
183
  8
0
  6
CONTINUOUS
 10
88.1669500042260239
 20
184.9082383463477015
 30
0.0
 11
74.1676500042260329
 21
184.9082383463477015
 31
0.0
  0
LINE
  5
184
  8
0
  6
CONTINUOUS
 10
74.1676500042260329
 20
184.9082383463477015
 30
0.0
 11
74.1676500042260329
 21
198.9075383463477067
 31
0.0
  0
LINE
  5
185
  8
0
  6
CONTINUOUS
 10
55.1176500042260287
 20
198.9075383463477067
 30
0.0
 11
69.1169500042260267
 21
198.9075383463477067
 31
0.0
  0
LINE
  5
186
  8
0
  6
CONTINUOUS
 10
69.1169500042260267
 20
198.9075383463477067
 30
0.0
 11
69.1169500042260267
 21
184.9082383463477015
 31
0.0
  0
LINE
  5
187
  8
0
  6
CONTINUOUS
 10
69.1169500042260267
 20
184.9082383463477015
 30
0.0
 11
55.1176500042260287
 21
184.9082383463477015
 31
0.0
  0
LINE
  5
188
  8
0
  6
CONTINUOUS
 10
55.1176500042260287
 20
184.9082383463477015
 30
0.0
 11
55.1176500042260287
 21
198.9075383463477067
 31
0.0
  0
LINE
  5
189
  8
0
  6
CONTINUOUS
 10
36.0676500042260386
 20
198.9075383463477067
 30
0.0
 11
50.0669500042260225
 21
198.9075383463477067
 31
0.0
  0
LINE
  5
18A
  8
0
  6
CONTINUOUS
 10
50.0669500042260225
 20
198.9075383463477067
 30
0.0
 11
50.0669500042260225
 21
184.9082383463477015
 31
0.0
  0
LINE
  5
18B
  8
0
  6
CONTINUOUS
 10
50.0669500042260225
 20
184.9082383463477015
 30
0.0
 11
36.0676500042260386
 21
184.9082383463477015
 31
0.0
  0
LINE
  5
18C
  8
0
  6
CONTINUOUS
 10
36.0676500042260386
 20
184.9082383463477015
 30
0.0
 11
36.0676500042260386
 21
198.9075383463477067
 31
0.0
  0
LINE
  5
18D
  8
0
  6
CONTINUOUS
 10
12.2551100042260295
 20
198.9075383463477067
 30
0.0
 11
26.2546500042260291
 21
198.9075383463477067
 31
0.0
  0
LINE
  5
18E
  8
0
  6
CONTINUOUS
 10
26.2546500042260291
 20
198.9075383463477067
 30
0.0
 11
26.2546500042260291
 21
184.9082383463477015
 31
0.0
  0
LINE
  5
18F
  8
0
  6
CONTINUOUS
 10
26.2546500042260291
 20
184.9082383463477015
 30
0.0
 11
12.2551100042260295
 21
184.9082383463477015
 31
0.0
  0
LINE
  5
190
  8
0
  6
CONTINUOUS
 10
12.2551100042260295
 20
184.9082383463477015
 30
0.0
 11
12.2551100042260295
 21
198.9075383463477067
 31
0.0
  0
LINE
  5
191
  8
0
  6
CONTINUOUS
 10
264.667950004225986
 20
217.9575383463476896
 30
0.0
 11
264.667950004225986
 21
213.2570383463477128
 31
0.0
  0
LINE
  5
192
  8
0
  6
CONTINUOUS
 10
264.667950004225986
 20
213.2570383463477128
 30
0.0
 11
263.1419500042259756
 21
213.2570383463477128
 31
0.0
  0
LINE
  5
193
  8
0
  6
CONTINUOUS
 10
263.1419500042259756
 20
213.2570383463477128
 30
0.0
 11
263.1419500042259756
 21
216.4871383463477059
 31
0.0
  0
LINE
  5
194
  8
0
  6
CONTINUOUS
 10
263.1419500042259756
 20
216.4871383463477059
 30
0.0
 11
256.3929500042261225
 21
216.4871383463477059
 31
0.0
  0
LINE
  5
195
  8
0
  6
CONTINUOUS
 10
256.3929500042261225
 20
216.4871383463477059
 30
0.0
 11
256.3929500042261225
 21
213.2570383463477128
 31
0.0
  0
LINE
  5
196
  8
0
  6
CONTINUOUS
 10
256.3929500042261225
 20
213.2570383463477128
 30
0.0
 11
255.566950004225987
 21
213.2570383463477128
 31
0.0
  0
LINE
  5
197
  8
0
  6
CONTINUOUS
 10
255.566950004225987
 20
213.2570383463477128
 30
0.0
 11
255.566950004225987
 21
210.4581383463477096
 31
0.0
  0
LINE
  5
198
  8
0
  6
CONTINUOUS
 10
255.566950004225987
 20
210.4581383463477096
 30
0.0
 11
256.3929500042261225
 21
210.4581383463477096
 31
0.0
  0
LINE
  5
199
  8
0
  6
CONTINUOUS
 10
256.3929500042261225
 20
210.4581383463477096
 30
0.0
 11
256.3929500042261225
 21
204.1882383463477026
 31
0.0
  0
LINE
  5
19A
  8
0
  6
CONTINUOUS
 10
256.3929500042261225
 20
204.1882383463477026
 30
0.0
 11
258.115950004226022
 21
204.1882383463477026
 31
0.0
  0
LINE
  5
19B
  8
0
  6
CONTINUOUS
 10
258.115950004226022
 20
204.1882383463477026
 30
0.0
 11
258.115950004226022
 21
202.9880383463477074
 31
0.0
  0
LINE
  5
19C
  8
0
  6
CONTINUOUS
 10
258.115950004226022
 20
202.9880383463477074
 30
0.0
 11
261.4169500042261234
 21
202.9880383463477074
 31
0.0
  0
LINE
  5
19D
  8
0
  6
CONTINUOUS
 10
261.4169500042261234
 20
202.9880383463477074
 30
0.0
 11
261.4169500042261234
 21
204.1882383463477026
 31
0.0
  0
LINE
  5
19E
  8
0
  6
CONTINUOUS
 10
261.4169500042261234
 20
204.1882383463477026
 30
0.0
 11
263.1419500042259756
 21
204.1882383463477026
 31
0.0
  0
LINE
  5
19F
  8
0
  6
CONTINUOUS
 10
263.1419500042259756
 20
204.1882383463477026
 30
0.0
 11
263.1419500042259756
 21
208.6572383463476967
 31
0.0
  0
LINE
  5
1A0
  8
0
  6
CONTINUOUS
 10
263.1419500042259756
 20
208.6572383463476967
 30
0.0
 11
264.667950004225986
 21
208.6572383463476967
 31
0.0
  0
LINE
  5
1A1
  8
0
  6
CONTINUOUS
 10
264.667950004225986
 20
208.6572383463476967
 30
0.0
 11
264.667950004225986
 21
203.9582383463477981
 31
0.0
  0
LINE
  5
1A2
  8
0
  6
CONTINUOUS
 10
264.667950004225986
 20
203.9582383463477981
 30
0.0
 11
278.6669500042261234
 21
203.9582383463477981
 31
0.0
  0
LINE
  5
1A3
  8
0
  6
CONTINUOUS
 10
278.6669500042261234
 20
203.9582383463477981
 30
0.0
 11
278.6669500042261234
 21
208.6572383463476967
 31
0.0
  0
LINE
  5
1A4
  8
0
  6
CONTINUOUS
 10
278.6669500042261234
 20
208.6572383463476967
 30
0.0
 11
280.1929500042260202
 21
208.6572383463476967
 31
0.0
  0
LINE
  5
1A5
  8
0
  6
CONTINUOUS
 10
280.1929500042260202
 20
208.6572383463476967
 30
0.0
 11
280.1929500042260202
 21
204.1882383463477026
 31
0.0
  0
LINE
  5
1A6
  8
0
  6
CONTINUOUS
 10
280.1929500042260202
 20
204.1882383463477026
 30
0.0
 11
281.9179500042260997
 21
204.1882383463477026
 31
0.0
  0
LINE
  5
1A7
  8
0
  6
CONTINUOUS
 10
281.9179500042260997
 20
204.1882383463477026
 30
0.0
 11
281.9179500042260997
 21
202.9880383463477074
 31
0.0
  0
LINE
  5
1A8
  8
0
  6
CONTINUOUS
 10
281.9179500042260997
 20
202.9880383463477074
 30
0.0
 11
285.2169500042260211
 21
202.9880383463477074
 31
0.0
  0
LINE
  5
1A9
  8
0
  6
CONTINUOUS
 10
285.2169500042260211
 20
202.9880383463477074
 30
0.0
 11
285.2169500042260211
 21
204.1882383463477026
 31
0.0
  0
LINE
  5
1AA
  8
0
  6
CONTINUOUS
 10
285.2169500042260211
 20
204.1882383463477026
 30
0.0
 11
286.9419500042261006
 21
204.1882383463477026
 31
0.0
  0
LINE
  5
1AB
  8
0
  6
CONTINUOUS
 10
286.9419500042261006
 20
204.1882383463477026
 30
0.0
 11
286.9419500042261006
 21
210.4581383463477096
 31
0.0
  0
LINE
  5
1AC
  8
0
  6
CONTINUOUS
 10
286.9419500042261006
 20
210.4581383463477096
 30
0.0
 11
287.7679500042260088
 21
210.4581383463477096
 31
0.0
  0
LINE
  5
1AD
  8
0
  6
CONTINUOUS
 10
287.7679500042260088
 20
210.4581383463477096
 30
0.0
 11
287.7679500042260088
 21
213.2570383463477128
 31
0.0
  0
LINE
  5
1AE
  8
0
  6
CONTINUOUS
 10
287.7679500042260088
 20
213.2570383463477128
 30
0.0
 11
286.9419500042261006
 21
213.2570383463477128
 31
0.0
  0
LINE
  5
1AF
  8
0
  6
CONTINUOUS
 10
286.9419500042261006
 20
213.2570383463477128
 30
0.0
 11
286.9419500042261006
 21
216.4871383463477059
 31
0.0
  0
LINE
  5
1B0
  8
0
  6
CONTINUOUS
 10
286.9419500042261006
 20
216.4871383463477059
 30
0.0
 11
280.1929500042260202
 21
216.4871383463477059
 31
0.0
  0
LINE
  5
1B1
  8
0
  6
CONTINUOUS
 10
280.1929500042260202
 20
216.4871383463477059
 30
0.0
 11
280.1929500042260202
 21
213.2570383463477128
 31
0.0
  0
LINE
  5
1B2
  8
0
  6
CONTINUOUS
 10
280.1929500042260202
 20
213.2570383463477128
 30
0.0
 11
278.6669500042261234
 21
213.2570383463477128
 31
0.0
  0
LINE
  5
1B3
  8
0
  6
CONTINUOUS
 10
278.6669500042261234
 20
213.2570383463477128
 30
0.0
 11
278.6669500042261234
 21
217.9575383463476896
 31
0.0
  0
LINE
  5
1B4
  8
0
  6
CONTINUOUS
 10
278.6669500042261234
 20
217.9575383463476896
 30
0.0
 11
264.667950004225986
 21
217.9575383463476896
 31
0.0
  0
LINE
  5
1B5
  8
0
  6
CONTINUOUS
 10
293.2429500042259747
 20
217.9575383463476896
 30
0.0
 11
307.2419500042259983
 21
217.9575383463476896
 31
0.0
  0
LINE
  5
1B6
  8
0
  6
CONTINUOUS
 10
307.2419500042259983
 20
217.9575383463476896
 30
0.0
 11
307.2419500042259983
 21
203.9582383463477981
 31
0.0
  0
LINE
  5
1B7
  8
0
  6
CONTINUOUS
 10
307.2419500042259983
 20
203.9582383463477981
 30
0.0
 11
293.2429500042259747
 21
203.9582383463477981
 31
0.0
  0
LINE
  5
1B8
  8
0
  6
CONTINUOUS
 10
293.2429500042259747
 20
203.9582383463477981
 30
0.0
 11
293.2429500042259747
 21
217.9575383463476896
 31
0.0
  0
LINE
  5
1B9
  8
0
  6
CONTINUOUS
 10
236.0929500042259974
 20
217.9575383463476896
 30
0.0
 11
250.0919500042261063
 21
217.9575383463476896
 31
0.0
  0
LINE
  5
1BA
  8
0
  6
CONTINUOUS
 10
250.0919500042261063
 20
217.9575383463476896
 30
0.0
 11
250.0919500042261063
 21
203.9582383463477981
 31
0.0
  0
LINE
  5
1BB
  8
0
  6
CONTINUOUS
 10
250.0919500042261063
 20
203.9582383463477981
 30
0.0
 11
236.0929500042259974
 21
203.9582383463477981
 31
0.0
  0
LINE
  5
1BC
  8
0
  6
CONTINUOUS
 10
236.0929500042259974
 20
203.9582383463477981
 30
0.0
 11
236.0929500042259974
 21
217.9575383463476896
 31
0.0
  0
LINE
  5
1BD
  8
0
  6
CONTINUOUS
 10
217.042950004225986
 20
217.9575383463476896
 30
0.0
 11
231.0419500042260097
 21
217.9575383463476896
 31
0.0
  0
LINE
  5
1BE
  8
0
  6
CONTINUOUS
 10
231.0419500042260097
 20
217.9575383463476896
 30
0.0
 11
231.0419500042260097
 21
203.9582383463477981
 31
0.0
  0
LINE
  5
1BF
  8
0
  6
CONTINUOUS
 10
231.0419500042260097
 20
203.9582383463477981
 30
0.0
 11
217.042950004225986
 21
203.9582383463477981
 31
0.0
  0
LINE
  5
1C0
  8
0
  6
CONTINUOUS
 10
217.042950004225986
 20
203.9582383463477981
 30
0.0
 11
217.042950004225986
 21
217.9575383463476896
 31
0.0
  0
LINE
  5
1C1
  8
0
  6
CONTINUOUS
 10
197.9929500042260031
 20
217.9575383463476896
 30
0.0
 11
211.9919500042259983
 21
217.9575383463476896
 31
0.0
  0
LINE
  5
1C2
  8
0
  6
CONTINUOUS
 10
211.9919500042259983
 20
217.9575383463476896
 30
0.0
 11
211.9919500042259983
 21
203.9582383463477981
 31
0.0
  0
LINE
  5
1C3
  8
0
  6
CONTINUOUS
 10
211.9919500042259983
 20
203.9582383463477981
 30
0.0
 11
197.9929500042260031
 21
203.9582383463477981
 31
0.0
  0
LINE
  5
1C4
  8
0
  6
CONTINUOUS
 10
197.9929500042260031
 20
203.9582383463477981
 30
0.0
 11
197.9929500042260031
 21
217.9575383463476896
 31
0.0
  0
LINE
  5
1C5
  8
0
  6
CONTINUOUS
 10
178.9429500042259917
 20
217.9575383463476896
 30
0.0
 11
192.941950004225987
 21
217.9575383463476896
 31
0.0
  0
LINE
  5
1C6
  8
0
  6
CONTINUOUS
 10
192.941950004225987
 20
217.9575383463476896
 30
0.0
 11
192.941950004225987
 21
203.9582383463477981
 31
0.0
  0
LINE
  5
1C7
  8
0
  6
CONTINUOUS
 10
192.941950004225987
 20
203.9582383463477981
 30
0.0
 11
178.9429500042259917
 21
203.9582383463477981
 31
0.0
  0
LINE
  5
1C8
  8
0
  6
CONTINUOUS
 10
178.9429500042259917
 20
203.9582383463477981
 30
0.0
 11
178.9429500042259917
 21
217.9575383463476896
 31
0.0
  0
LINE
  5
1C9
  8
0
  6
CONTINUOUS
 10
159.8929500042260088
 20
217.9575383463476896
 30
0.0
 11
173.891950004226004
 21
217.9575383463476896
 31
0.0
  0
LINE
  5
1CA
  8
0
  6
CONTINUOUS
 10
173.891950004226004
 20
217.9575383463476896
 30
0.0
 11
173.891950004226004
 21
203.9582383463477981
 31
0.0
  0
LINE
  5
1CB
  8
0
  6
CONTINUOUS
 10
173.891950004226004
 20
203.9582383463477981
 30
0.0
 11
159.8929500042260088
 21
203.9582383463477981
 31
0.0
  0
LINE
  5
1CC
  8
0
  6
CONTINUOUS
 10
159.8929500042260088
 20
203.9582383463477981
 30
0.0
 11
159.8929500042260088
 21
217.9575383463476896
 31
0.0
  0
LINE
  5
1CD
  8
0
  6
CONTINUOUS
 10
140.8429500042259974
 20
217.9575383463476896
 30
0.0
 11
154.8419500042259926
 21
217.9575383463476896
 31
0.0
  0
LINE
  5
1CE
  8
0
  6
CONTINUOUS
 10
154.8419500042259926
 20
217.9575383463476896
 30
0.0
 11
154.8419500042259926
 21
203.9582383463477981
 31
0.0
  0
LINE
  5
1CF
  8
0
  6
CONTINUOUS
 10
154.8419500042259926
 20
203.9582383463477981
 30
0.0
 11
140.8429500042259974
 21
203.9582383463477981
 31
0.0
  0
LINE
  5
1D0
  8
0
  6
CONTINUOUS
 10
140.8429500042259974
 20
203.9582383463477981
 30
0.0
 11
140.8429500042259974
 21
217.9575383463476896
 31
0.0
  0
LINE
  5
1D1
  8
0
  6
CONTINUOUS
 10
121.7909500042260049
 20
217.9575383463476896
 30
0.0
 11
135.7919500042260097
 21
217.9575383463476896
 31
0.0
  0
LINE
  5
1D2
  8
0
  6
CONTINUOUS
 10
135.7919500042260097
 20
217.9575383463476896
 30
0.0
 11
135.7919500042260097
 21
203.9582383463477981
 31
0.0
  0
LINE
  5
1D3
  8
0
  6
CONTINUOUS
 10
135.7919500042260097
 20
203.9582383463477981
 30
0.0
 11
121.7909500042260049
 21
203.9582383463477981
 31
0.0
  0
LINE
  5
1D4
  8
0
  6
CONTINUOUS
 10
121.7909500042260049
 20
203.9582383463477981
 30
0.0
 11
121.7909500042260049
 21
217.9575383463476896
 31
0.0
  0
LINE
  5
1D5
  8
0
  6
CONTINUOUS
 10
102.7412500042260035
 20
217.9575383463476896
 30
0.0
 11
116.7419500042259983
 21
217.9575383463476896
 31
0.0
  0
LINE
  5
1D6
  8
0
  6
CONTINUOUS
 10
116.7419500042259983
 20
217.9575383463476896
 30
0.0
 11
116.7419500042259983
 21
203.9582383463477981
 31
0.0
  0
LINE
  5
1D7
  8
0
  6
CONTINUOUS
 10
116.7419500042259983
 20
203.9582383463477981
 30
0.0
 11
102.7412500042260035
 21
203.9582383463477981
 31
0.0
  0
LINE
  5
1D8
  8
0
  6
CONTINUOUS
 10
102.7412500042260035
 20
203.9582383463477981
 30
0.0
 11
102.7412500042260035
 21
217.9575383463476896
 31
0.0
  0
LINE
  5
1D9
  8
0
  6
CONTINUOUS
 10
83.6926500042260386
 20
217.9575383463476896
 30
0.0
 11
97.6919500042260438
 21
217.9575383463476896
 31
0.0
  0
LINE
  5
1DA
  8
0
  6
CONTINUOUS
 10
97.6919500042260438
 20
217.9575383463476896
 30
0.0
 11
97.6919500042260438
 21
203.9582383463477981
 31
0.0
  0
LINE
  5
1DB
  8
0
  6
CONTINUOUS
 10
97.6919500042260438
 20
203.9582383463477981
 30
0.0
 11
83.6926500042260386
 21
203.9582383463477981
 31
0.0
  0
LINE
  5
1DC
  8
0
  6
CONTINUOUS
 10
83.6926500042260386
 20
203.9582383463477981
 30
0.0
 11
83.6926500042260386
 21
217.9575383463476896
 31
0.0
  0
LINE
  5
1DD
  8
0
  6
CONTINUOUS
 10
64.6426500042260272
 20
217.9575383463476896
 30
0.0
 11
78.6419500042260324
 21
217.9575383463476896
 31
0.0
  0
LINE
  5
1DE
  8
0
  6
CONTINUOUS
 10
78.6419500042260324
 20
217.9575383463476896
 30
0.0
 11
78.6419500042260324
 21
203.9582383463477981
 31
0.0
  0
LINE
  5
1DF
  8
0
  6
CONTINUOUS
 10
78.6419500042260324
 20
203.9582383463477981
 30
0.0
 11
64.6426500042260272
 21
203.9582383463477981
 31
0.0
  0
LINE
  5
1E0
  8
0
  6
CONTINUOUS
 10
64.6426500042260272
 20
203.9582383463477981
 30
0.0
 11
64.6426500042260272
 21
217.9575383463476896
 31
0.0
  0
LINE
  5
1E1
  8
0
  6
CONTINUOUS
 10
45.5926500042260372
 20
217.9575383463476896
 30
0.0
 11
59.5919500042260282
 21
217.9575383463476896
 31
0.0
  0
LINE
  5
1E2
  8
0
  6
CONTINUOUS
 10
59.5919500042260282
 20
217.9575383463476896
 30
0.0
 11
59.5919500042260282
 21
203.9582383463477981
 31
0.0
  0
LINE
  5
1E3
  8
0
  6
CONTINUOUS
 10
59.5919500042260282
 20
203.9582383463477981
 30
0.0
 11
45.5926500042260372
 21
203.9582383463477981
 31
0.0
  0
LINE
  5
1E4
  8
0
  6
CONTINUOUS
 10
45.5926500042260372
 20
203.9582383463477981
 30
0.0
 11
45.5926500042260372
 21
217.9575383463476896
 31
0.0
  0
LINE
  5
1E5
  8
0
  6
CONTINUOUS
 10
26.5426500042260294
 20
217.9575383463476896
 30
0.0
 11
40.5419500042260381
 21
217.9575383463476896
 31
0.0
  0
LINE
  5
1E6
  8
0
  6
CONTINUOUS
 10
40.5419500042260381
 20
217.9575383463476896
 30
0.0
 11
40.5419500042260381
 21
203.9582383463477981
 31
0.0
  0
LINE
  5
1E7
  8
0
  6
CONTINUOUS
 10
40.5419500042260381
 20
203.9582383463477981
 30
0.0
 11
26.5426500042260294
 21
203.9582383463477981
 31
0.0
  0
LINE
  5
1E8
  8
0
  6
CONTINUOUS
 10
26.5426500042260294
 20
203.9582383463477981
 30
0.0
 11
26.5426500042260294
 21
217.9575383463476896
 31
0.0
  0
LINE
  5
1E9
  8
0
  6
CONTINUOUS
 10
7.4926000042260341
 20
217.9575383463476896
 30
0.0
 11
21.4921500042260405
 21
217.9575383463476896
 31
0.0
  0
LINE
  5
1EA
  8
0
  6
CONTINUOUS
 10
21.4921500042260405
 20
217.9575383463476896
 30
0.0
 11
21.4921500042260405
 21
203.9582383463477981
 31
0.0
  0
LINE
  5
1EB
  8
0
  6
CONTINUOUS
 10
21.4921500042260405
 20
203.9582383463477981
 30
0.0
 11
7.4926000042260341
 21
203.9582383463477981
 31
0.0
  0
LINE
  5
1EC
  8
0
  6
CONTINUOUS
 10
7.4926000042260341
 20
203.9582383463477981
 30
0.0
 11
7.4926000042260341
 21
217.9575383463476896
 31
0.0
  0
POLYLINE
  5
4DF
  8
0
  6
CONTINUOUS
 66
     1
 10
0.0
 20
0.0
 30
0.0
 70
     1
  0
VERTEX
  5
560
  8
0
  6
CONTINUOUS
 10
-0.5073999957739659
 20
229.9575383463476896
 30
0.0
  0
VERTEX
  5
561
  8
0
  6
CONTINUOUS
 10
315.2416000042259725
 20
229.9575383463476896
 30
0.0
 42
-0.4142135623730953
  0
VERTEX
  5
562
  8
0
  6
CONTINUOUS
 10
319.2416000042259725
 20
225.9575383463476896
 30
0.0
  0
VERTEX
  5
563
  8
0
  6
CONTINUOUS
 10
319.2416000042259725
 20
119.757538346347701
 30
0.0
 42
-0.4142135623730949
  0
VERTEX
  5
564
  8
0
  6
CONTINUOUS
 10
315.2416000042259725
 20
115.757538346347701
 30
0.0
  0
VERTEX
  5
565
  8
0
  6
CONTINUOUS
 10
-0.5073999957740014
 20
115.757538346347701
 30
0.0
 42
-0.4142135623730951
  0
VERTEX
  5
566
  8
0
  6
CONTINUOUS
 10
-4.5073999957740014
 20
119.757538346347701
 30
0.0
  0
VERTEX
  5
567
  8
0
  6
CONTINUOUS
 10
-4.507399995773965
 20
225.9575383463476896
 30
0.0
 42
-0.4142135623730951
  0
SEQEND
  5
568
  8
0
  6
CONTINUOUS
  0
CIRCLE
  5
4E0
  8
0
  6
CONTINUOUS
 10
0.4926000042260342
 20
224.9575383463476896
 30
0.0
 40
2.2000000000000002
  0
CIRCLE
  5
4E1
  8
0
  6
CONTINUOUS
 10
0.4926000042259986
 20
120.757538346347701
 30
0.0
 40
2.2000000000000002
  0
CIRCLE
  5
4E2
  8
0
  6
CONTINUOUS
 10
157.3671000042259891
 20
120.757538346347701
 30
0.0
 40
2.2000000000000002
  0
CIRCLE
  5
4E3
  8
0
  6
CONTINUOUS
 10
314.2416000042259725
 20
120.757538346347701
 30
0.0
 40
2.2000000000000002
  0
CIRCLE
  5
4E4
  8
0
  6
CONTINUOUS
 10
314.2416000042259725
 20
224.9575383463476896
 30
0.0
 40
2.2000000000000002
  0
CIRCLE
  5
4E5
  8
0
  6
CONTINUOUS
 10
157.3671000042259891
 20
224.9575383463476896
 30
0.0
 40
2.2000000000000002
  0
LINE
  5
505
  8
0
  6
CONTINUOUS
 10
7.4926000042260341
 20
203.9575383463476896
 30
0.0
 11
7.4926000042260341
 21
203.9582383463477981
 31
0.0
  0
ENDSEC
  0
EOF
